SplineFontDB: 3.0
FontName: DOF-3-Italic
FullName: DOF-3-Italic
FamilyName: DOF-3
Weight: Italic

StartChar: exclam
Encoding: 33 33 1
Width: 493
VWidth: 910
Flags: HW
LayerCount: 2
Fore
SplineSet
385 816 m 2
 386 819 l 1
 502 819 l 1
 619 819 l 2
 619 818 617 811 614 803 c 0
 611 794 609 785 608 783 c 0
 606 775 422 186 412 156 c 2
 402 125 l 1
 286 125 l 2
 221 125 169 125 169 126 c 0
 169 127 369 765 378 792 c 0
 382 803 384 814 385 816 c 2
230 73 m 0
 290 78 356 65 371 46 c 0
 386 25 351 6 285 1 c 0
 270 0 247 0 232 1 c 0
 166 6 131 25 146 46 c 0
 156 59 189 69 230 73 c 0
EndSplineSet
EndChar

StartChar: quotedbl
Encoding: 34 34 2
Width: 506
VWidth: 910
Flags: HW
LayerCount: 2
Fore
SplineSet
228 812 m 2
 229 819 l 1
 346 819 l 2
 439 819 462 819 462 818 c 0
 461 817 448 772 431 717 c 2
 400 617 l 1
 283 617 l 2
 219 617 167 617 167 618 c 2
 167 618 216 775 228 812 c 2
524 719 m 2
 555 819 l 1
 672 819 l 1
 788 819 l 1
 788 817 l 2
 787 815 740 663 729 630 c 2
 725 617 l 1
 609 617 l 2
 506 617 492 617 492 618 c 0
 493 619 507 664 524 719 c 2
EndSplineSet
EndChar

StartChar: numbersign
Encoding: 35 35 3
Width: 998
VWidth: 910
Flags: HW
LayerCount: 2
Fore
SplineSet
485 531 m 1
 553 614 l 1
 669 614 l 2
 763 614 786 614 785 613 c 0
 785 612 754 576 718 531 c 0
 683 486 653 449 653 448 c 0
 652 447 665 447 708 447 c 2
 765 447 l 1
 831 531 l 1
 898 614 l 1
 1015 614 l 1
 1131 614 l 1
 1129 611 l 2
 1127 608 1096 571 1061 527 c 2
 998 448 l 1
 1046 447 l 2
 1084 447 1094 447 1094 446 c 0
 1093 445 1073 379 1071 375 c 0
 1071 373 1068 373 1005 373 c 2
 938 373 l 1
 885 308 l 1
 832 242 l 1
 880 241 l 2
 906 241 928 241 928 240 c 2
 928 240 921 217 910 182 c 2
 906 167 l 1
 839 167 l 1
 772 167 l 1
 705 84 l 1
 638 0 l 1
 522 0 l 2
 428 0 405 0 406 1 c 0
 406 2 436 39 471 84 c 0
 507 129 538 166 538 167 c 0
 539 168 528 167 482 167 c 2
 427 167 l 1
 360 84 l 1
 292 0 l 1
 176 0 l 2
 82 0 59 0 60 1 c 0
 60 2 91 39 127 85 c 2
 193 167 l 1
 145 167 l 2
 99 167 96 167 96 169 c 0
 97 171 118 237 119 239 c 0
 119 241 123 241 186 241 c 2
 253 241 l 1
 306 307 l 1
 359 373 l 1
 310 373 l 2
 284 373 262 373 262 374 c 2
 262 374 268 391 273 411 c 2
 285 447 l 1
 351 447 l 1
 419 447 l 1
 485 531 l 1
701 369 m 2
 705 373 l 1
 648 373 l 1
 592 373 l 1
 542 312 l 2
 516 278 492 249 490 246 c 2
 486 241 l 1
 542 241 l 1
 599 241 l 1
 648 303 l 2
 675 337 699 367 701 369 c 2
EndSplineSet
EndChar

StartChar: dollar
Encoding: 36 36 4
Width: 884
VWidth: 910
Flags: HW
LayerCount: 2
Fore
SplineSet
603 776 m 1
 617 819 l 1
 698 819 l 2
 764 819 780 819 779 818 c 0
 776 809 753 732 754 732 c 1
 754 731 757 731 761 731 c 0
 778 731 824 728 849 723 c 0
 907 715 948 700 968 682 c 0
 978 674 986 659 989 645 c 0
 991 632 990 616 985 603 c 0
 984 600 981 592 979 585 c 2
 976 573 l 1
 859 573 l 1
 743 573 l 1
 743 573 744 581 747 589 c 0
 756 617 758 629 756 640 c 0
 755 648 752 655 749 656 c 0
 747 656 743 657 738 657 c 2
 730 658 l 1
 696 551 l 2
 677 492 662 442 662 441 c 0
 662 439 661 439 664 439 c 0
 666 439 676 438 687 436 c 0
 764 425 815 408 849 383 c 0
 867 370 880 352 885 332 c 0
 887 326 887 322 887 309 c 0
 887 290 885 283 877 259 c 0
 856 193 824 154 773 129 c 0
 724 106 658 93 572 88 c 0
 560 87 551 87 551 87 c 1
 551 87 545 68 537 44 c 2
 524 0 l 1
 442 0 l 2
 386 0 361 0 361 1 c 0
 361 2 368 21 375 45 c 0
 382 68 388 86 387 87 c 0
 387 88 384 88 380 88 c 0
 363 88 317 91 292 96 c 0
 233 104 192 119 172 137 c 0
 158 149 150 169 150 188 c 0
 150 199 152 204 159 227 c 2
 166 246 l 1
 281 246 l 2
 346 246 398 246 398 245 c 2
 398 245 396 237 393 228 c 0
 384 201 382 190 384 179 c 0
 385 171 388 164 391 163 c 0
 393 163 397 162 402 162 c 2
 411 161 l 1
 445 270 l 1
 480 380 l 1
 474 380 l 2
 470 381 460 381 449 383 c 0
 396 390 355 400 324 414 c 0
 268 439 244 474 249 524 c 0
 253 558 272 605 294 634 c 0
 311 658 331 672 358 686 c 0
 399 707 457 722 528 728 c 0
 546 730 578 732 586 732 c 2
 590 732 l 1
 603 776 l 1
534 557 m 0
 550 609 564 652 564 652 c 2
 563 652 561 650 556 648 c 0
 536 638 517 614 502 583 c 0
 482 539 476 503 488 481 c 0
 491 476 503 460 505 461 c 0
 505 462 519 504 534 557 c 0
648 339 m 0
 646 343 643 347 640 350 c 2
 635 355 l 1
 606 263 l 2
 591 213 577 171 577 170 c 0
 576 168 586 174 593 180 c 0
 616 198 633 227 646 267 c 0
 652 287 654 294 654 309 c 0
 654 323 653 331 648 339 c 0
EndSplineSet
EndChar

StartChar: percent
Encoding: 37 37 5
Width: 1099
VWidth: 910
Flags: HW
LayerCount: 2
Fore
SplineSet
515 861 m 0
 554 863 597 861 631 855 c 0
 689 846 727 825 742 799 c 0
 755 774 754 737 740 681 c 0
 727 631 699 541 685 513 c 0
 683 509 683 507 683 506 c 2
 683 506 772 577 881 663 c 2
 1079 819 l 1
 1195 819 l 1
 1311 819 l 1
 1071 629 l 2
 939 525 832 440 832 440 c 2
 832 439 835 440 840 441 c 0
 864 446 895 449 929 450 c 0
 1026 452 1106 432 1133 398 c 0
 1146 383 1152 364 1151 336 c 0
 1149 305 1142 274 1119 202 c 0
 1095 124 1080 88 1058 55 c 0
 1038 24 1019 6 988 -9 c 0
 943 -32 874 -45 799 -43 c 0
 720 -41 659 -24 629 2 c 0
 623 7 615 19 611 26 c 0
 606 38 604 46 605 67 c 0
 605 102 612 133 639 219 c 0
 653 262 662 288 671 308 c 2
 674 314 l 1
 650 296 l 2
 637 285 548 214 452 138 c 2
 278 0 l 1
 161 0 l 2
 50 0 44 0 46 2 c 0
 74 24 525 381 525 381 c 1
 525 381 519 381 513 379 c 0
 487 374 460 371 426 370 c 0
 345 368 276 383 239 408 c 0
 222 419 213 431 208 451 c 0
 206 457 207 462 207 479 c 0
 207 500 209 515 215 542 c 0
 221 569 236 618 251 664 c 0
 272 726 294 767 321 796 c 0
 336 811 361 826 387 837 c 0
 421 850 469 859 515 861 c 0
515 725 m 0
 516 730 517 735 516 735 c 0
 515 735 501 704 496 690 c 0
 482 655 456 573 448 537 c 0
 444 523 440 496 440 494 c 0
 441 492 455 522 461 538 c 0
 469 558 476 579 487 616 c 0
 505 674 511 700 515 725 c 0
915 310 m 0
 916 318 917 326 917 326 c 2
 916 329 903 302 896 284 c 0
 880 244 851 152 844 116 c 0
 842 106 838 85 838 84 c 1
 839 84 842 89 846 96 c 0
 858 121 868 148 882 192 c 0
 901 253 910 285 915 310 c 0
EndSplineSet
EndChar

StartChar: ampersand
Encoding: 38 38 6
Width: 884
VWidth: 910
Flags: HW
LayerCount: 2
Fore
SplineSet
638 824 m 0
 655 825 728 825 745 824 c 0
 811 820 862 811 897 794 c 0
 916 785 929 776 938 764 c 0
 957 740 961 710 952 666 c 0
 947 642 935 604 928 587 c 0
 909 539 872 500 815 466 c 0
 773 442 730 425 638 396 c 0
 614 389 594 382 594 381 c 2
 594 381 603 359 609 344 c 0
 625 301 646 257 668 218 c 2
 677 202 l 1
 781 202 l 2
 869 202 885 202 885 201 c 0
 883 196 873 164 873 162 c 0
 873 160 865 140 860 130 c 0
 845 97 822 71 796 54 c 2
 789 48 l 2
 788 48 801 36 811 28 c 0
 826 15 841 8 854 3 c 2
 862 0 l 1
 745 0 l 2
 668 0 628 0 626 1 c 0
 623 2 619 2 610 1 c 0
 566 -4 541 -5 460 -5 c 0
 385 -6 373 -5 338 -1 c 0
 248 7 185 31 158 66 c 0
 144 85 138 108 139 136 c 0
 140 157 144 176 154 209 c 0
 163 243 171 262 182 281 c 0
 207 323 251 359 310 388 c 0
 325 395 350 406 352 406 c 2
 352 406 352 411 350 416 c 0
 335 466 325 515 323 553 c 0
 322 579 325 598 334 627 c 0
 352 685 374 725 403 752 c 0
 450 797 526 819 638 824 c 0
711 747 m 2
 707 751 l 1
 684 751 l 2
 671 751 659 750 658 750 c 0
 653 749 640 742 635 737 c 0
 631 735 625 729 620 724 c 0
 605 709 591 686 579 657 c 0
 574 642 561 605 560 597 c 0
 555 579 555 548 559 522 c 0
 561 509 565 482 566 481 c 0
 566 480 592 493 604 499 c 0
 644 521 672 546 690 580 c 0
 702 602 719 660 723 690 c 0
 726 715 722 735 711 747 c 2
441 208 m 0
 436 215 427 231 421 244 c 2
 410 266 l 1
 404 254 l 2
 393 232 379 185 374 155 c 0
 368 112 377 83 400 71 c 1
 405 69 l 1
 447 68 l 2
 485 68 532 69 534 70 c 0
 534 71 533 73 530 76 c 0
 503 107 468 158 441 208 c 0
EndSplineSet
EndChar

StartChar: parenleft
Encoding: 40 40 7
Width: 341
VWidth: 910
Flags: HW
LayerCount: 2
Fore
SplineSet
319 867 m 2
 322 870 l 1
 441 870 l 1
 558 870 l 1
 558 834 l 1
 558 797 l 1
 555 796 l 2
 546 791 535 767 513 706 c 0
 490 643 464 558 411 391 c 0
 343 171 315 78 299 12 c 2
 293 -8 l 1
 293 -29 l 1
 293 -51 l 1
 176 -51 l 2
 68 -51 58 -51 57 -49 c 0
 56 -48 56 -39 56 -2 c 0
 56 52 56 48 66 86 c 0
 82 152 109 245 177 465 c 0
 270 762 303 853 319 867 c 2
EndSplineSet
EndChar

StartChar: parenright
Encoding: 41 41 8
Width: 341
VWidth: 910
Flags: HW
LayerCount: 2
Fore
SplineSet
304 847 m 1
 304 870 l 1
 421 870 l 2
 529 870 540 870 541 868 c 0
 543 866 544 785 542 772 c 0
 536 734 506 630 431 393 c 0
 331 72 296 -28 279 -46 c 2
 275 -51 l 1
 157 -51 l 1
 40 -51 l 1
 40 -15 l 1
 40 23 l 1
 42 24 l 2
 48 27 58 45 69 71 c 0
 91 127 127 238 198 467 c 0
 258 660 284 746 299 807 c 2
 304 824 l 1
 304 847 l 1
EndSplineSet
EndChar

StartChar: asterisk
Encoding: 42 42 9
Width: 796
VWidth: 910
Flags: HW
LayerCount: 2
Fore
SplineSet
616 815 m 2
 617 819 l 1
 654 819 l 1
 691 819 l 1
 690 817 l 2
 690 816 686 802 681 786 c 0
 676 769 671 755 672 755 c 2
 672 755 684 760 699 768 c 0
 719 777 726 781 727 780 c 0
 730 777 763 729 762 729 c 2
 762 729 745 720 724 710 c 2
 685 692 l 1
 710 674 l 2
 724 664 736 656 737 655 c 0
 739 653 740 653 705 628 c 2
 671 602 l 1
 652 615 l 2
 639 623 632 628 632 628 c 2
 632 627 626 612 621 595 c 2
 612 563 l 1
 574 563 l 2
 554 563 538 563 538 564 c 2
 538 564 543 579 548 596 c 0
 553 614 558 629 558 629 c 2
 557 629 548 624 536 618 c 0
 524 613 512 606 508 604 c 2
 502 602 l 1
 483 628 l 2
 474 642 466 654 466 654 c 2
 466 655 483 663 504 673 c 0
 525 683 542 692 542 692 c 1
 542 692 532 700 518 709 c 0
 505 718 494 726 492 728 c 2
 490 730 l 1
 523 755 l 2
 541 770 557 780 558 780 c 0
 559 780 568 774 578 767 c 0
 588 760 596 754 597 755 c 0
 598 755 610 795 616 815 c 2
EndSplineSet
EndChar

StartChar: plus
Encoding: 43 43 10
Width: 998
VWidth: 910
Flags: HW
LayerCount: 2
Fore
SplineSet
571 600 m 2
 574 614 l 1
 691 614 l 2
 755 614 807 614 807 613 c 0
 807 612 796 577 760 461 c 2
 724 345 l 1
 893 344 l 1
 1062 344 l 1
 1056 325 l 2
 1053 315 1048 299 1046 291 c 0
 1043 282 1040 274 1039 273 c 2
 1039 270 l 1
 870 270 l 1
 701 270 l 1
 665 156 l 2
 645 93 627 34 624 26 c 0
 621 18 618 9 617 5 c 2
 616 0 l 1
 500 0 l 2
 436 0 383 0 383 1 c 0
 383 2 393 32 431 154 c 2
 467 270 l 1
 298 270 l 1
 128 271 l 1
 135 289 l 2
 138 299 142 314 145 322 c 0
 148 330 149 337 150 340 c 2
 151 344 l 1
 320 344 l 1
 490 345 l 1
 527 463 l 2
 548 529 564 583 565 584 c 0
 565 585 568 593 571 600 c 2
EndSplineSet
EndChar

StartChar: comma
Encoding: 44 44 11
Width: 290
VWidth: 910
Flags: HW
LayerCount: 2
Fore
SplineSet
135 73 m 0
 145 74 172 74 183 73 c 0
 218 70 247 63 262 53 c 0
 275 44 275 39 267 15 c 0
 252 -29 227 -76 202 -113 c 0
 182 -142 155 -176 148 -181 c 0
 135 -189 114 -195 85 -200 c 0
 68 -202 18 -202 2 -200 c 0
 -43 -194 -70 -182 -74 -167 c 0
 -75 -163 -72 -159 -61 -146 c 0
 -18 -93 15 -33 35 24 c 0
 42 45 42 45 47 49 c 0
 61 61 95 70 135 73 c 0
EndSplineSet
EndChar

StartChar: hyphen
Encoding: 45 45 12
Width: 998
VWidth: 910
Flags: HW
LayerCount: 2
Fore
SplineSet
143 317 m 2
 151 344 l 1
 607 344 l 1
 1062 344 l 1
 1056 326 l 2
 1053 316 1048 299 1045 289 c 2
 1039 270 l 1
 583 270 l 1
 128 270 l 1
 132 280 l 2
 133 285 138 302 143 317 c 2
EndSplineSet
EndChar

StartChar: period
Encoding: 46 46 13
Width: 290
VWidth: 910
Flags: HW
LayerCount: 2
Fore
SplineSet
128 73 m 0
 188 78 254 65 269 46 c 0
 284 25 249 6 183 1 c 0
 168 0 145 0 130 1 c 0
 64 6 29 25 44 46 c 0
 54 59 87 69 128 73 c 0
EndSplineSet
EndChar

StartChar: slash
Encoding: 47 47 14
Width: 695
VWidth: 910
Flags: HW
LayerCount: 2
Fore
SplineSet
360 411 m 2
 674 819 l 1
 790 819 l 2
 860 819 907 819 907 818 c 2
 907 818 765 634 592 409 c 2
 278 0 l 1
 161 0 l 1
 45 0 l 1
 46 2 l 2
 47 3 188 187 360 411 c 2
EndSplineSet
EndChar

StartChar: zero
Encoding: 48 48 15
Width: 884
VWidth: 910
Flags: HW
LayerCount: 2
Fore
SplineSet
644 824 m 0
 665 825 708 825 730 824 c 0
 849 819 931 789 962 742 c 0
 994 695 991 618 954 489 c 0
 939 435 909 339 894 299 c 0
 859 203 822 137 777 92 c 0
 713 28 602 -5 453 -5 c 0
 312 -5 213 24 178 77 c 0
 147 123 149 197 183 320 c 0
 192 350 215 425 231 475 c 0
 271 599 312 676 363 727 c 0
 420 784 514 818 644 824 c 0
711 746 m 1
 704 751 l 1
 690 751 l 2
 682 751 675 751 674 750 c 0
 673 750 668 750 665 749 c 0
 638 744 606 726 582 701 c 0
 536 654 500 581 461 460 c 0
 422 340 404 276 396 229 c 0
 381 142 393 91 430 73 c 2
 437 69 l 1
 454 69 l 2
 473 69 481 70 497 76 c 0
 532 89 564 116 593 161 c 0
 628 215 654 274 692 395 c 0
 727 509 740 554 746 604 c 0
 758 682 746 729 711 746 c 1
EndSplineSet
EndChar

StartChar: one
Encoding: 49 49 16
Width: 616
VWidth: 910
Flags: HW
LayerCount: 2
Fore
SplineSet
375 685 m 1
 551 819 l 1
 667 819 l 2
 778 819 784 819 784 817 c 0
 782 813 536 28 532 15 c 2
 528 0 l 1
 411 0 l 1
 295 0 l 1
 296 2 l 2
 301 18 478 585 477 585 c 2
 477 585 467 578 454 568 c 2
 431 551 l 1
 315 551 l 1
 199 552 l 1
 375 685 l 1
EndSplineSet
EndChar

StartChar: two
Encoding: 50 50 17
Width: 884
VWidth: 910
Flags: HW
LayerCount: 2
Fore
SplineSet
609 824 m 0
 634 825 759 824 776 823 c 0
 837 818 881 811 916 798 c 0
 970 779 996 753 1002 712 c 0
 1006 685 1000 651 985 600 c 0
 978 580 974 571 965 552 c 0
 930 481 867 424 758 360 c 0
 733 346 713 335 653 304 c 0
 583 269 551 253 526 238 c 0
 440 189 388 142 355 85 c 2
 349 75 l 1
 583 74 l 2
 713 74 819 74 819 73 c 2
 819 73 809 39 802 18 c 2
 796 0 l 1
 442 0 l 2
 128 0 88 0 88 1 c 0
 89 2 92 11 95 21 c 0
 104 51 111 73 113 75 c 2
 120 87 l 1
 156 159 223 219 339 283 c 0
 363 296 387 309 453 342 c 0
 539 387 567 402 605 427 c 0
 634 447 656 464 679 486 c 0
 695 503 706 517 718 534 c 0
 736 561 746 584 758 626 c 0
 772 674 774 707 763 729 c 0
 759 737 752 743 745 748 c 2
 740 751 l 1
 684 750 l 2
 595 750 586 749 565 729 c 0
 547 711 536 689 523 646 c 2
 521 637 l 1
 404 637 l 2
 293 637 288 637 288 639 c 0
 289 640 291 649 294 659 c 0
 303 688 304 692 310 705 c 0
 330 746 359 772 403 789 c 0
 453 809 518 820 609 824 c 0
EndSplineSet
EndChar

StartChar: three
Encoding: 51 51 18
Width: 884
VWidth: 910
Flags: HW
LayerCount: 2
Fore
SplineSet
592 827 m 0
 603 828 674 827 684 826 c 0
 689 825 708 826 726 825 c 0
 778 823 806 821 837 816 c 0
 894 808 936 796 965 776 c 0
 980 765 991 755 998 740 c 0
 1014 705 1010 662 984 580 c 0
 965 524 945 488 917 459 c 0
 897 440 869 423 840 411 c 2
 833 407 l 1
 833 407 838 404 843 400 c 0
 861 389 871 377 879 362 c 0
 895 328 893 287 867 207 c 0
 847 147 826 110 797 81 c 0
 766 50 723 29 664 14 c 0
 616 2 569 -3 490 -5 c 0
 472 -6 451 -7 445 -7 c 0
 428 -9 350 -9 331 -7 c 0
 279 -3 237 3 198 13 c 0
 164 21 142 32 128 46 c 0
 115 59 111 75 116 90 c 0
 117 92 120 101 122 109 c 2
 127 125 l 1
 244 125 l 2
 337 125 360 125 360 124 c 0
 355 109 349 87 348 82 c 0
 347 77 347 76 348 73 c 0
 349 69 348 69 360 66 c 0
 374 64 395 65 411 66 c 0
 420 68 439 67 466 68 c 0
 496 69 509 69 514 70 c 0
 554 77 587 107 612 157 c 0
 620 173 625 184 633 208 c 0
 649 258 655 287 655 314 c 0
 655 331 655 339 650 350 c 0
 645 360 635 368 626 371 c 0
 623 372 597 373 532 373 c 2
 442 374 l 1
 449 393 l 2
 452 403 455 413 455 415 c 0
 456 416 458 424 461 432 c 2
 465 447 l 1
 536 447 l 2
 612 447 629 448 642 451 c 0
 661 456 678 467 694 482 c 0
 709 497 719 510 730 533 c 0
 746 566 766 626 772 664 c 0
 775 679 775 704 773 714 c 0
 768 731 758 745 745 749 c 0
 743 750 724 751 701 751 c 0
 676 752 655 752 648 753 c 0
 633 755 622 755 608 754 c 0
 594 753 569 748 566 747 c 0
 561 744 554 737 551 732 c 0
 550 729 546 720 543 711 c 2
 538 695 l 1
 421 694 l 1
 305 694 l 1
 310 710 l 2
 313 718 316 727 317 731 c 0
 319 740 324 749 330 756 c 0
 347 779 383 796 431 807 c 0
 480 818 528 824 592 827 c 0
EndSplineSet
EndChar

StartChar: four
Encoding: 52 52 19
Width: 818
VWidth: 910
Flags: HW
LayerCount: 2
Fore
SplineSet
370 634 m 1
 517 819 l 1
 599 819 l 2
 664 819 680 819 679 818 c 0
 678 816 454 533 449 527 c 2
 445 522 l 1
 476 522 l 1
 507 522 l 1
 517 556 l 2
 522 574 529 596 532 602 c 2
 535 614 l 1
 652 614 l 2
 754 614 768 614 768 613 c 0
 766 609 740 524 740 523 c 0
 740 522 781 522 838 522 c 2
 938 522 l 1
 926 485 l 1
 915 449 l 1
 816 449 l 1
 716 449 l 1
 715 441 l 2
 713 436 681 336 644 218 c 2
 576 1 l 1
 460 0 l 2
 367 0 343 0 343 1 c 0
 344 2 375 102 413 224 c 0
 451 346 482 446 483 447 c 0
 483 449 477 449 354 449 c 2
 224 450 l 1
 370 634 l 1
EndSplineSet
EndChar

StartChar: five
Encoding: 53 53 20
Width: 884
VWidth: 910
Flags: HW
LayerCount: 2
Fore
SplineSet
343 816 m 2
 344 819 l 1
 698 819 l 1
 1052 819 l 2
 1052 818 1051 811 1048 803 c 0
 1045 794 1042 785 1041 783 c 0
 1040 781 1039 778 1039 776 c 0
 1038 774 1036 766 1033 759 c 2
 1029 745 l 1
 792 745 l 1
 554 745 l 1
 535 682 l 2
 524 647 515 619 515 618 c 1
 516 618 529 618 545 619 c 0
 578 620 680 620 701 618 c 0
 771 613 820 602 857 585 c 0
 887 570 906 555 918 531 c 0
 936 496 936 450 920 384 c 0
 910 342 884 259 869 221 c 0
 834 128 790 74 722 40 c 0
 677 18 619 3 549 -2 c 0
 519 -5 490 -5 441 -5 c 0
 334 -5 269 0 214 14 c 0
 159 27 133 44 123 76 c 0
 121 83 121 106 124 114 c 0
 125 118 127 127 130 136 c 2
 136 151 l 1
 257 151 l 1
 378 151 l 1
 368 133 l 2
 356 111 354 108 355 93 c 0
 355 85 355 82 357 77 c 0
 359 73 360 72 362 71 c 0
 367 68 466 67 489 69 c 0
 506 71 526 77 542 89 c 0
 575 112 604 151 626 200 c 0
 641 234 659 287 679 354 c 0
 702 435 705 484 688 518 c 0
 685 525 682 528 677 533 c 0
 673 537 668 541 665 543 c 2
 661 545 l 1
 623 546 l 2
 558 546 520 544 511 539 c 0
 504 535 492 524 487 516 c 0
 478 503 478 502 476 482 c 0
 476 472 475 464 475 463 c 2
 354 463 l 1
 233 464 l 1
 239 483 l 2
 252 526 330 773 335 792 c 0
 340 803 342 813 343 816 c 2
EndSplineSet
EndChar

StartChar: six
Encoding: 54 54 21
Width: 884
VWidth: 910
Flags: HW
LayerCount: 2
Fore
SplineSet
610 824 m 0
 622 825 728 824 744 823 c 0
 824 818 877 809 918 792 c 0
 929 787 933 785 942 779 c 0
 950 774 953 771 959 763 c 0
 970 748 975 728 972 708 c 0
 971 704 968 693 964 681 c 2
 958 659 l 1
 836 659 l 1
 715 659 l 2
 715 660 720 667 725 676 c 0
 730 684 734 695 736 699 c 0
 739 708 741 720 739 728 c 0
 738 735 735 744 732 746 c 0
 730 749 716 750 683 751 c 2
 654 751 l 1
 647 748 l 2
 631 741 615 732 600 718 c 0
 583 703 574 694 559 672 c 0
 544 647 526 616 529 616 c 0
 538 619 665 621 699 618 c 0
 770 613 820 602 857 585 c 0
 887 570 906 555 918 531 c 0
 936 496 936 450 920 384 c 0
 910 342 884 259 869 221 c 0
 822 96 755 37 635 11 c 0
 580 -2 523 -6 436 -5 c 0
 390 -4 376 -4 349 -1 c 0
 275 5 221 23 188 49 c 0
 155 74 141 114 146 168 c 0
 150 211 161 254 204 389 c 0
 250 531 288 622 330 686 c 0
 352 718 370 737 398 757 c 0
 453 796 523 819 610 824 c 0
665 543 m 2
 661 545 l 1
 628 546 l 2
 610 546 591 545 586 545 c 0
 554 542 517 517 488 479 c 0
 456 437 433 379 398 260 c 0
 375 179 372 130 389 96 c 0
 392 89 395 86 400 81 c 0
 404 77 408 73 411 71 c 2
 417 69 l 1
 446 68 l 2
 483 68 497 69 510 74 c 0
 532 81 553 95 573 117 c 0
 604 149 627 194 650 263 c 0
 657 285 672 330 679 354 c 0
 702 435 705 484 688 518 c 0
 685 525 682 528 677 533 c 0
 673 537 668 541 665 543 c 2
EndSplineSet
EndChar

StartChar: seven
Encoding: 55 55 22
Width: 796
VWidth: 910
Flags: HW
LayerCount: 2
Fore
SplineSet
289 782 m 1
 300 819 l 1
 646 819 l 1
 992 819 l 1
 991 816 l 2
 990 815 985 799 980 781 c 0
 974 763 969 746 968 745 c 0
 967 743 407 5 404 2 c 0
 403 0 396 0 287 0 c 2
 170 1 l 1
 453 373 l 1
 735 745 l 1
 506 745 l 1
 277 745 l 1
 289 782 l 1
EndSplineSet
EndChar

StartChar: eight
Encoding: 56 56 23
Width: 884
VWidth: 910
Flags: HW
LayerCount: 2
Fore
SplineSet
618 824 m 0
 641 825 758 824 776 823 c 0
 852 818 903 806 940 787 c 0
 972 771 989 752 997 725 c 0
 999 716 999 713 999 696 c 0
 999 681 999 675 997 666 c 0
 993 643 983 608 974 582 c 0
 955 528 932 491 902 466 c 0
 887 453 862 440 837 429 c 2
 835 428 l 1
 844 421 l 2
 880 398 896 370 895 326 c 0
 894 302 889 278 877 241 c 0
 854 165 837 129 808 94 c 0
 766 44 694 13 593 1 c 0
 548 -4 508 -5 435 -5 c 0
 369 -4 343 -2 305 3 c 0
 215 16 160 43 143 86 c 0
 129 118 133 159 154 228 c 0
 177 304 198 346 231 380 c 0
 251 399 276 415 305 428 c 0
 311 431 318 433 318 434 c 2
 312 438 l 2
 269 463 257 503 272 568 c 0
 277 593 289 629 299 654 c 0
 313 690 328 717 350 739 c 0
 375 765 416 787 464 802 c 0
 506 814 557 821 618 824 c 0
743 748 m 0
 739 750 738 750 694 751 c 0
 632 751 624 750 606 742 c 0
 594 736 585 729 574 719 c 0
 549 693 531 656 512 590 c 0
 495 531 495 493 514 476 c 0
 524 467 521 468 567 467 c 0
 628 467 641 468 659 477 c 0
 686 490 709 513 725 548 c 0
 741 580 758 632 764 669 c 0
 766 678 765 683 765 696 c 0
 765 714 764 722 759 732 c 0
 755 738 748 745 743 748 c 0
633 390 m 2
 628 393 l 1
 583 393 l 2
 527 393 517 393 502 388 c 0
 495 385 480 378 474 374 c 0
 440 351 417 314 396 252 c 0
 384 219 375 186 370 161 c 0
 368 150 369 145 369 131 c 0
 369 112 370 103 375 92 c 0
 379 84 389 75 396 71 c 2
 401 69 l 1
 442 68 l 2
 487 68 509 69 520 72 c 0
 559 82 591 113 614 162 c 0
 631 197 654 266 659 302 c 0
 664 333 662 357 652 372 c 0
 648 378 639 386 633 390 c 2
EndSplineSet
EndChar

StartChar: nine
Encoding: 57 57 24
Width: 884
VWidth: 910
Flags: HW
LayerCount: 2
Fore
SplineSet
637 824 m 0
 652 825 752 824 765 823 c 0
 837 818 884 807 921 790 c 0
 945 778 960 767 972 752 c 0
 987 732 996 708 997 677 c 0
 998 644 992 610 977 558 c 0
 962 504 918 375 902 330 c 0
 860 214 818 135 778 92 c 0
 747 60 703 33 654 16 c 0
 629 8 594 1 563 -2 c 0
 542 -5 520 -5 482 -5 c 0
 358 -5 279 4 224 27 c 0
 213 32 208 34 199 40 c 0
 191 45 188 48 182 56 c 0
 170 71 165 92 170 114 c 0
 170 119 173 130 177 140 c 0
 180 150 183 158 183 159 c 0
 183 160 205 160 304 160 c 0
 370 160 425 160 425 159 c 2
 425 159 420 151 415 142 c 0
 407 127 405 123 403 117 c 0
 401 106 401 90 404 83 c 0
 407 74 410 71 415 71 c 0
 422 70 456 68 472 68 c 0
 486 68 487 68 493 71 c 0
 519 82 547 103 567 128 c 0
 573 135 585 151 592 165 c 0
 597 174 613 202 613 203 c 2
 613 203 609 202 605 202 c 0
 570 199 475 198 440 201 c 0
 352 207 293 223 255 251 c 0
 245 258 240 263 233 272 c 0
 222 286 216 301 211 322 c 0
 209 330 209 334 209 354 c 0
 209 378 210 386 216 415 c 0
 224 457 255 556 274 605 c 0
 312 700 362 755 438 787 c 0
 489 809 550 820 637 824 c 0
730 748 m 2
 725 750 l 1
 692 751 l 2
 674 751 655 750 650 750 c 0
 612 746 566 711 535 658 c 0
 517 627 502 592 484 536 c 0
 474 506 463 469 458 450 c 0
 435 366 436 312 463 286 c 0
 467 282 472 278 475 276 c 2
 481 274 l 1
 510 273 l 2
 548 273 559 274 573 279 c 0
 605 289 637 316 662 354 c 0
 687 391 701 426 729 513 c 0
 746 569 753 597 758 623 c 0
 769 679 763 717 742 738 c 0
 738 742 733 746 730 748 c 2
EndSplineSet
EndChar

StartChar: colon
Encoding: 58 58 25
Width: 290
VWidth: 910
Flags: HW
LayerCount: 2
Fore
SplineSet
298 613 m 0
 340 617 389 612 417 601 c 0
 442 592 449 578 437 566 c 0
 419 548 355 537 299 542 c 0
 233 547 198 566 213 587 c 0
 223 600 257 609 298 613 c 0
128 73 m 0
 188 78 254 65 269 46 c 0
 284 25 249 6 183 1 c 0
 168 0 145 0 130 1 c 0
 64 6 29 25 44 46 c 0
 54 59 87 69 128 73 c 0
EndSplineSet
EndChar

StartChar: semicolon
Encoding: 59 59 26
Width: 290
VWidth: 910
Flags: HW
LayerCount: 2
Fore
SplineSet
298 613 m 0
 340 617 389 612 417 601 c 0
 442 592 449 578 437 566 c 0
 419 548 355 537 299 542 c 0
 233 547 198 566 213 587 c 0
 223 600 257 609 298 613 c 0
135 73 m 0
 145 74 172 74 183 73 c 0
 218 70 247 63 262 53 c 0
 275 44 275 39 267 15 c 0
 252 -29 227 -76 202 -113 c 0
 182 -142 155 -176 148 -181 c 0
 135 -189 114 -195 85 -200 c 0
 68 -202 18 -202 2 -200 c 0
 -43 -194 -70 -182 -74 -167 c 0
 -75 -163 -72 -159 -61 -146 c 0
 -18 -93 15 -33 35 24 c 0
 42 45 42 45 47 49 c 0
 61 61 95 70 135 73 c 0
EndSplineSet
EndChar

StartChar: less
Encoding: 60 60 27
Width: 998
VWidth: 910
Flags: HW
LayerCount: 2
Fore
SplineSet
653 491 m 0
 862 565 1033 625 1033 625 c 2
 1033 624 1027 603 1019 577 c 0
 1009 546 1003 530 1002 529 c 0
 1001 529 861 479 691 419 c 0
 521 359 380 309 379 308 c 0
 377 308 418 288 613 199 c 0
 743 140 852 90 857 88 c 2
 865 85 l 1
 849 37 l 2
 841 11 835 -10 835 -11 c 1
 834 -11 242 259 242 260 c 0
 242 261 271 354 272 355 c 2
 272 355 444 416 653 491 c 0
EndSplineSet
EndChar

StartChar: equal
Encoding: 61 61 28
Width: 998
VWidth: 910
Flags: HW
LayerCount: 2
Fore
SplineSet
184 446 m 0
 184 447 389 447 639 447 c 2
 1094 447 l 1
 1093 443 l 2
 1092 440 1086 424 1081 406 c 2
 1071 372 l 1
 616 372 l 2
 293 372 161 372 161 373 c 0
 161 374 183 445 184 446 c 0
109 208 m 2
 119 242 l 1
 574 242 l 1
 1029 242 l 1
 1029 239 l 2
 1028 238 1024 221 1018 203 c 2
 1007 168 l 1
 552 167 l 1
 96 167 l 1
 97 171 l 2
 98 174 104 190 109 208 c 2
EndSplineSet
EndChar

StartChar: greater
Encoding: 62 62 29
Width: 998
VWidth: 910
Flags: HW
LayerCount: 2
Fore
SplineSet
353 616 m 0
 355 621 356 625 357 625 c 2
 357 625 491 565 653 491 c 0
 859 397 948 355 948 354 c 0
 948 353 942 331 934 306 c 2
 919 259 l 1
 539 124 l 2
 330 50 157 -11 157 -10 c 2
 157 -10 164 12 172 37 c 2
 188 85 l 1
 496 195 l 2
 666 255 807 305 809 306 c 2
 814 308 l 1
 571 418 l 2
 437 479 327 529 327 530 c 2
 327 530 332 548 339 569 c 0
 345 590 351 611 353 616 c 0
EndSplineSet
EndChar

StartChar: question
Encoding: 63 63 30
Width: 796
VWidth: 910
Flags: HW
LayerCount: 2
Fore
SplineSet
586 824 m 0
 600 825 716 824 729 823 c 0
 777 819 805 815 838 807 c 0
 875 797 907 782 925 765 c 0
 930 760 939 748 943 741 c 0
 957 716 959 684 951 644 c 0
 946 619 935 578 920 536 c 0
 898 473 872 429 838 400 c 0
 822 386 796 371 774 360 c 0
 734 339 683 324 634 319 c 0
 625 318 617 317 615 316 c 0
 614 316 611 304 590 238 c 0
 577 196 565 160 563 157 c 0
 562 153 560 144 558 138 c 2
 553 126 l 1
 437 125 l 1
 320 125 l 1
 323 133 l 2
 324 138 327 146 329 152 c 0
 339 183 394 362 395 365 c 0
 396 366 398 374 401 381 c 2
 405 396 l 1
 489 396 l 1
 572 396 l 1
 577 399 l 2
 609 415 633 435 651 463 c 0
 669 489 681 518 699 577 c 0
 725 659 729 698 714 727 c 0
 710 735 700 744 694 748 c 2
 691 751 l 1
 644 751 l 2
 602 751 596 750 589 749 c 0
 574 745 558 738 543 727 c 0
 535 721 517 702 511 693 c 0
 497 676 486 653 476 628 c 0
 471 613 452 560 447 543 c 2
 445 536 l 1
 329 536 l 2
 265 536 212 536 212 537 c 2
 212 537 214 544 217 553 c 0
 220 562 223 571 223 575 c 0
 226 584 238 619 243 634 c 0
 263 685 288 722 319 747 c 0
 361 782 419 805 496 816 c 0
 523 820 543 822 586 824 c 0
381 73 m 0
 441 78 507 65 522 46 c 0
 537 25 502 6 436 1 c 0
 421 0 398 0 383 1 c 0
 317 6 282 25 297 46 c 0
 307 59 340 69 381 73 c 0
EndSplineSet
EndChar

StartChar: at
Encoding: 64 64 31
Width: 1188
VWidth: 910
Flags: HW
LayerCount: 2
Fore
SplineSet
746 807 m 0
 775 808 893 808 921 807 c 0
 996 804 1049 798 1098 786 c 0
 1205 760 1259 713 1271 634 c 0
 1276 606 1273 564 1265 524 c 0
 1258 487 1235 406 1224 380 c 0
 1209 343 1184 307 1156 283 c 0
 1118 250 1071 234 1009 229 c 0
 981 227 942 229 918 234 c 0
 916 234 916 234 913 227 c 0
 906 212 893 192 880 179 c 0
 837 133 763 113 646 113 c 0
 565 113 506 124 469 148 c 0
 446 163 434 184 431 215 c 0
 427 246 435 288 453 351 c 0
 460 377 481 441 488 463 c 0
 522 561 556 616 604 646 c 0
 653 677 727 692 823 690 c 0
 867 689 892 686 920 681 c 0
 970 671 1001 652 1014 626 c 0
 1020 614 1021 607 1021 590 c 0
 1021 563 1020 558 982 434 c 0
 966 382 952 339 951 337 c 0
 951 335 952 335 958 335 c 2
 963 336 l 1
 970 346 l 2
 978 358 988 375 993 389 c 0
 999 405 1017 463 1025 495 c 0
 1041 561 1045 610 1034 648 c 0
 1024 687 996 716 960 726 c 0
 940 732 924 734 855 735 c 0
 755 736 720 733 684 723 c 0
 652 713 620 697 593 674 c 0
 579 664 556 641 546 628 c 0
 517 592 495 550 473 493 c 0
 456 450 423 345 413 302 c 0
 390 212 395 153 425 113 c 0
 436 99 454 83 469 73 c 0
 476 68 493 59 495 59 c 0
 496 59 497 61 498 64 c 2
 499 68 l 1
 615 68 l 2
 679 68 732 68 732 67 c 2
 732 67 730 60 727 51 c 0
 724 42 721 33 721 30 c 0
 719 24 715 20 709 15 c 0
 699 9 684 3 657 -2 c 0
 560 -25 448 -25 360 -2 c 0
 288 16 234 50 199 96 c 0
 177 125 168 155 166 197 c 0
 165 236 172 280 190 345 c 0
 204 391 230 472 242 502 c 0
 260 551 282 593 304 624 c 0
 336 670 372 704 418 731 c 0
 433 739 462 754 479 760 c 0
 550 788 634 803 746 807 c 0
823 628 m 2
 819 631 l 1
 807 631 l 2
 797 631 795 631 788 628 c 0
 758 617 731 589 706 538 c 0
 688 502 673 461 644 365 c 0
 624 301 616 258 617 226 c 0
 618 200 623 186 635 176 c 2
 640 172 l 1
 654 172 l 2
 667 172 668 173 674 176 c 0
 699 189 721 215 736 253 c 0
 742 268 746 278 786 405 c 0
 829 542 829 546 833 563 c 0
 836 578 837 600 834 609 c 0
 831 616 827 623 823 628 c 2
EndSplineSet
EndChar

StartChar: A
Encoding: 65 65 32
Width: 942
VWidth: 910
Flags: HW
LayerCount: 2
Fore
SplineSet
316 411 m 2
 574 819 l 1
 727 819 l 1
 880 819 l 1
 880 800 l 2
 880 785 885 194 886 31 c 1
 887 0 l 1
 770 0 l 1
 654 0 l 1
 654 3 l 2
 654 6 674 272 675 280 c 2
 675 286 l 1
 561 286 l 1
 445 286 l 1
 367 143 l 1
 289 0 l 1
 173 0 l 2
 107 0 56 0 56 1 c 2
 56 1 173 186 316 411 c 2
697 568 m 0
 706 682 714 776 714 776 c 2
 713 776 487 361 486 360 c 0
 486 359 529 360 583 360 c 2
 681 360 l 1
 681 360 688 453 697 568 c 0
EndSplineSet
EndChar

StartChar: B
Encoding: 66 66 33
Width: 884
VWidth: 910
Flags: HW
LayerCount: 2
Fore
SplineSet
343 817 m 2
 344 819 l 1
 458 819 l 2
 522 819 577 819 585 818 c 0
 593 817 610 817 624 816 c 0
 749 811 847 794 910 767 c 0
 952 749 977 723 987 683 c 0
 991 670 991 659 991 643 c 0
 990 621 986 600 976 573 c 0
 950 504 910 457 853 429 c 0
 843 424 817 414 808 410 c 0
 803 409 801 407 804 407 c 0
 806 407 825 397 833 392 c 0
 854 380 866 368 875 349 c 0
 889 320 889 283 876 234 c 0
 871 216 865 201 857 184 c 0
 832 133 789 92 737 66 c 0
 676 35 571 13 441 5 c 0
 377 0 326 0 198 0 c 0
 101 0 88 0 88 1 c 0
 89 2 92 11 95 21 c 0
 98 31 102 45 104 51 c 0
 107 57 133 142 162 238 c 0
 192 334 218 413 218 415 c 0
 219 416 244 500 276 601 c 0
 308 702 336 791 338 800 c 0
 341 808 343 816 343 817 c 2
609 743 m 0
 600 743 584 744 573 745 c 2
 554 745 l 1
 508 598 l 2
 483 517 462 450 461 449 c 2
 461 447 l 1
 492 447 l 2
 545 447 584 448 608 453 c 0
 635 458 659 467 675 481 c 0
 704 504 727 535 744 580 c 0
 763 629 763 671 745 702 c 0
 740 710 730 720 724 724 c 0
 705 733 665 739 609 743 c 0
570 371 m 0
 564 372 531 372 498 373 c 2
 438 373 l 1
 436 368 l 2
 431 351 346 77 345 76 c 0
 344 73 394 76 438 81 c 0
 479 86 516 94 535 103 c 0
 570 118 604 154 625 193 c 0
 635 212 642 233 647 258 c 0
 656 302 651 335 634 352 c 0
 622 363 606 368 570 371 c 0
EndSplineSet
EndChar

StartChar: C
Encoding: 67 67 34
Width: 884
VWidth: 910
Flags: HW
LayerCount: 2
Fore
SplineSet
644 824 m 0
 662 825 774 824 796 823 c 0
 869 819 921 811 962 797 c 0
 985 789 1002 781 1014 771 c 0
 1024 763 1034 748 1038 733 c 0
 1040 727 1039 723 1039 710 c 0
 1039 691 1039 687 1031 662 c 0
 1027 652 1025 643 1024 641 c 2
 1023 638 l 1
 902 637 l 1
 781 637 l 1
 791 655 l 2
 802 675 803 681 806 697 c 0
 809 715 804 737 796 744 c 0
 794 747 793 746 786 748 c 0
 772 750 731 751 698 751 c 0
 673 750 667 750 661 748 c 0
 633 742 605 725 582 701 c 0
 536 654 500 581 461 460 c 0
 422 340 404 276 396 229 c 0
 381 142 393 91 430 73 c 2
 437 69 l 1
 481 69 l 2
 551 69 575 72 590 82 c 0
 604 91 621 111 629 129 c 0
 635 142 636 146 637 162 c 0
 638 169 638 177 639 179 c 2
 639 182 l 1
 760 182 l 1
 881 182 l 1
 875 163 l 2
 866 133 865 129 860 120 c 0
 846 90 824 64 796 47 c 0
 751 19 672 2 561 -4 c 0
 532 -6 439 -6 414 -5 c 0
 279 1 196 35 170 92 c 0
 147 140 153 216 188 337 c 0
 208 403 237 496 253 539 c 0
 286 625 321 685 363 727 c 0
 420 784 513 817 644 824 c 0
EndSplineSet
EndChar

StartChar: D
Encoding: 68 68 35
Width: 862
VWidth: 910
Flags: HW
LayerCount: 2
Fore
SplineSet
343 816 m 2
 344 819 l 1
 461 819 l 2
 529 819 577 819 577 818 c 2
 577 818 582 817 588 817 c 0
 644 813 681 810 719 804 c 0
 787 793 839 776 879 752 c 0
 937 717 964 671 967 603 c 0
 968 554 957 499 932 415 c 0
 905 326 879 266 848 217 c 0
 822 175 789 138 754 112 c 0
 676 55 567 20 422 7 c 0
 397 4 385 4 347 2 c 0
 335 1 281 1 208 0 c 0
 97 0 88 0 88 2 c 1
 89 2 92 11 95 21 c 0
 108 63 331 776 336 793 c 0
 340 803 342 814 343 816 c 2
590 741 m 0
 567 744 554 745 554 743 c 0
 553 742 507 593 451 411 c 0
 394 229 347 79 346 78 c 0
 346 76 345 76 350 76 c 0
 416 83 454 94 498 116 c 0
 525 131 547 145 571 169 c 0
 618 216 652 280 686 379 c 0
 726 500 740 574 731 630 c 0
 726 659 715 680 698 697 c 0
 673 722 641 736 590 741 c 0
EndSplineSet
EndChar

StartChar: E
Encoding: 69 69 36
Width: 862
VWidth: 910
Flags: HW
LayerCount: 2
Fore
SplineSet
343 816 m 2
 344 819 l 1
 698 819 l 2
 893 819 1052 819 1052 818 c 0
 1052 817 1042 784 1040 779 c 0
 1039 777 1037 769 1035 761 c 2
 1029 746 l 1
 792 745 l 1
 555 745 l 1
 508 596 l 1
 461 448 l 1
 674 447 l 2
 844 447 886 447 886 446 c 0
 885 445 883 437 880 428 c 0
 873 407 869 390 865 380 c 2
 863 372 l 1
 651 372 l 1
 438 372 l 1
 392 224 l 2
 367 143 346 76 345 75 c 0
 345 74 393 74 582 74 c 0
 749 74 819 74 819 73 c 0
 819 72 809 40 807 34 c 0
 806 32 805 23 802 15 c 2
 796 1 l 1
 442 0 l 2
 117 0 88 0 88 2 c 1
 89 2 92 11 95 21 c 0
 108 63 331 776 336 793 c 0
 340 803 342 814 343 816 c 2
EndSplineSet
EndChar

StartChar: F
Encoding: 70 70 37
Width: 862
VWidth: 910
Flags: HW
LayerCount: 2
Fore
SplineSet
343 816 m 2
 344 819 l 1
 698 819 l 2
 893 819 1052 819 1052 818 c 0
 1052 817 1042 784 1040 779 c 0
 1039 777 1037 769 1035 761 c 2
 1029 746 l 1
 792 745 l 1
 555 745 l 1
 508 596 l 1
 461 448 l 1
 674 447 l 2
 844 447 886 447 886 446 c 0
 885 445 883 437 880 428 c 0
 873 407 869 390 865 380 c 2
 863 372 l 1
 651 372 l 1
 438 372 l 1
 388 211 l 2
 361 122 335 39 330 25 c 2
 321 0 l 1
 205 0 l 2
 99 0 88 0 88 2 c 1
 89 2 92 11 95 21 c 0
 108 63 331 776 336 793 c 0
 340 803 342 814 343 816 c 2
EndSplineSet
EndChar

StartChar: G
Encoding: 71 71 38
Width: 884
VWidth: 910
Flags: HW
LayerCount: 2
Fore
SplineSet
644 824 m 0
 662 825 774 824 796 823 c 0
 869 819 921 811 962 797 c 0
 985 789 1002 781 1014 771 c 0
 1024 763 1034 748 1038 733 c 0
 1040 727 1039 723 1039 710 c 0
 1039 691 1039 687 1031 662 c 0
 1027 652 1025 643 1024 641 c 2
 1023 638 l 1
 902 637 l 1
 781 637 l 1
 791 655 l 2
 802 675 803 681 806 697 c 0
 809 715 804 737 796 744 c 0
 794 747 793 746 786 748 c 0
 772 750 731 751 698 751 c 0
 673 750 667 750 661 748 c 0
 633 742 605 725 582 701 c 0
 536 654 500 581 461 460 c 0
 422 340 404 276 396 229 c 0
 381 142 393 91 430 73 c 2
 437 69 l 1
 481 69 l 2
 551 69 575 72 590 82 c 0
 605 92 621 111 629 130 c 0
 634 139 633 139 674 269 c 2
 707 373 l 1
 695 373 l 2
 688 373 664 372 621 369 c 0
 586 366 557 364 557 364 c 2
 556 364 568 405 572 415 c 0
 573 416 575 426 579 436 c 0
 582 446 584 455 585 455 c 2
 585 455 610 453 640 451 c 2
 694 447 l 1
 828 447 l 2
 903 447 963 447 963 446 c 0
 963 445 873 155 867 136 c 0
 857 107 835 76 810 57 c 0
 792 42 773 34 745 25 c 0
 699 10 639 1 561 -4 c 0
 532 -6 439 -6 414 -5 c 0
 279 1 196 35 170 92 c 0
 147 140 153 216 188 337 c 0
 208 403 237 496 253 539 c 0
 286 625 321 685 363 727 c 0
 420 784 513 817 644 824 c 0
EndSplineSet
EndChar

StartChar: H
Encoding: 72 72 39
Width: 884
VWidth: 910
Flags: HW
LayerCount: 2
Fore
SplineSet
343 816 m 2
 344 819 l 1
 461 819 l 1
 577 819 l 2
 577 818 576 811 573 803 c 0
 570 794 566 784 565 780 c 0
 564 775 487 526 473 486 c 0
 473 484 479 484 593 484 c 2
 715 484 l 1
 758 626 l 2
 783 704 806 778 810 790 c 0
 814 802 817 814 818 816 c 2
 819 819 l 1
 936 819 l 1
 1052 819 l 2
 1052 818 1051 811 1048 803 c 0
 1045 794 1041 783 1040 779 c 0
 1035 764 816 57 806 28 c 2
 796 0 l 1
 680 0 l 2
 574 0 563 0 563 2 c 1
 564 2 567 11 570 21 c 0
 574 31 602 123 634 225 c 0
 665 326 691 410 691 410 c 2
 691 411 637 411 571 411 c 2
 451 411 l 1
 394 231 l 2
 363 133 335 41 330 26 c 2
 321 0 l 1
 205 0 l 2
 99 0 88 0 88 2 c 1
 89 2 92 11 95 21 c 0
 99 31 127 126 160 232 c 0
 194 338 222 431 225 439 c 0
 250 517 332 783 337 796 c 0
 340 804 342 813 343 816 c 2
EndSplineSet
EndChar

StartChar: I
Encoding: 73 73 40
Width: 530
VWidth: 910
Flags: HW
LayerCount: 2
Fore
SplineSet
405 818 m 1
 405 819 458 819 522 819 c 2
 638 819 l 1
 632 800 l 2
 617 753 398 52 392 33 c 0
 388 21 384 8 383 5 c 2
 382 0 l 1
 266 0 l 2
 202 0 149 0 149 1 c 0
 149 2 388 770 393 784 c 0
 394 787 397 796 400 804 c 0
 403 811 404 818 405 818 c 1
EndSplineSet
EndChar

StartChar: J
Encoding: 74 74 41
Width: 740
VWidth: 910
Flags: HW
LayerCount: 2
Fore
SplineSet
674 816 m 2
 674 819 l 1
 791 819 l 1
 907 819 l 1
 907 817 l 2
 907 816 904 808 901 800 c 0
 899 791 897 783 897 782 c 0
 896 778 740 281 733 258 c 0
 705 172 676 118 638 79 c 0
 592 34 523 10 418 2 c 0
 411 1 390 1 374 0 c 0
 258 -2 172 18 132 54 c 0
 117 68 107 89 103 115 c 0
 101 128 102 153 104 169 c 0
 107 184 112 213 117 233 c 0
 122 251 138 303 139 306 c 0
 140 307 142 314 145 322 c 2
 149 337 l 1
 270 337 l 1
 391 337 l 1
 390 334 l 2
 389 332 385 324 380 316 c 0
 374 304 371 298 368 289 c 0
 366 284 363 272 360 265 c 0
 339 198 332 150 336 117 c 0
 339 99 344 85 353 77 c 0
 357 73 357 74 363 74 c 0
 381 74 406 91 428 116 c 0
 453 145 472 185 494 245 c 0
 497 254 536 378 581 519 c 0
 625 661 663 785 667 795 c 0
 670 805 674 814 674 816 c 2
EndSplineSet
EndChar

StartChar: K
Encoding: 75 75 42
Width: 862
VWidth: 910
Flags: HW
LayerCount: 2
Fore
SplineSet
343 816 m 2
 344 819 l 1
 461 819 l 1
 577 819 l 2
 577 818 576 811 573 803 c 0
 570 794 566 783 565 778 c 0
 563 773 550 731 535 683 c 0
 520 635 508 595 508 594 c 1
 509 594 589 644 688 706 c 2
 867 819 l 1
 983 819 l 1
 1099 819 l 1
 864 671 l 2
 735 590 628 523 628 523 c 2
 628 522 671 405 724 261 c 0
 777 118 819 0 819 0 c 1
 703 0 l 1
 586 0 l 1
 586 2 l 2
 585 3 562 100 535 217 c 0
 508 334 485 429 484 431 c 0
 484 433 482 431 467 421 c 2
 451 411 l 1
 393 229 l 2
 362 129 334 38 329 24 c 2
 321 0 l 1
 205 0 l 2
 99 0 88 0 88 2 c 1
 89 2 92 11 95 21 c 0
 108 63 331 776 336 793 c 0
 340 803 342 814 343 816 c 2
EndSplineSet
EndChar

StartChar: L
Encoding: 76 76 43
Width: 841
VWidth: 910
Flags: HW
LayerCount: 2
Fore
SplineSet
343 816 m 2
 344 819 l 1
 461 819 l 1
 577 819 l 2
 577 818 576 811 573 803 c 0
 570 794 566 782 564 777 c 0
 562 769 347 79 345 75 c 0
 345 74 394 74 583 74 c 2
 820 74 l 1
 814 55 l 2
 811 44 807 34 807 33 c 0
 806 31 805 23 802 15 c 2
 797 0 l 1
 442 0 l 2
 118 0 88 0 88 2 c 1
 89 2 92 11 95 21 c 0
 108 63 331 776 336 793 c 0
 340 803 342 814 343 816 c 2
EndSplineSet
EndChar

StartChar: M
Encoding: 77 77 44
Width: 1289
VWidth: 910
Flags: HW
LayerCount: 2
Fore
SplineSet
343 816 m 2
 344 819 l 1
 461 819 l 1
 577 819 l 1
 637 492 l 2
 669 313 696 167 696 166 c 1
 697 166 815 313 960 492 c 2
 1224 819 l 1
 1341 819 l 2
 1452 819 1457 819 1457 817 c 0
 1457 816 1410 633 1354 408 c 2
 1252 0 l 1
 1136 0 l 2
 1064 0 1019 0 1019 1 c 2
 1019 1 1045 103 1076 228 c 0
 1108 353 1133 455 1133 455 c 2
 1132 455 1041 354 929 228 c 2
 727 0 l 1
 645 0 l 1
 563 1 l 1
 502 228 l 2
 468 353 441 454 441 454 c 2
 441 455 402 353 356 228 c 2
 271 0 l 1
 155 0 l 2
 44 0 38 0 38 2 c 0
 39 3 107 186 190 409 c 0
 274 632 343 815 343 816 c 2
EndSplineSet
EndChar

StartChar: N
Encoding: 78 78 45
Width: 884
VWidth: 910
Flags: HW
LayerCount: 2
Fore
SplineSet
344 817 m 0
 344 819 351 819 461 819 c 2
 577 819 l 1
 622 576 l 2
 647 442 666 332 666 331 c 2
 666 331 700 437 741 568 c 0
 782 698 815 808 817 812 c 2
 819 819 l 1
 936 819 l 2
 1047 819 1052 819 1052 817 c 0
 1050 813 805 28 801 15 c 2
 796 0 l 1
 680 0 l 1
 563 0 l 1
 563 5 l 2
 563 7 543 117 518 248 c 0
 494 379 474 487 474 487 c 2
 474 488 441 384 401 257 c 0
 361 130 328 19 325 13 c 2
 321 0 l 1
 205 0 l 2
 102 0 88 0 88 1 c 0
 89 3 342 812 344 817 c 0
EndSplineSet
EndChar

StartChar: O
Encoding: 79 79 46
Width: 1144
VWidth: 910
Flags: HW
LayerCount: 2
Fore
SplineSet
729 824 m 0
 759 825 874 825 903 824 c 0
 980 821 1043 813 1090 800 c 0
 1168 778 1215 746 1239 696 c 0
 1260 650 1261 591 1240 507 c 0
 1229 461 1196 356 1179 310 c 0
 1149 229 1116 173 1070 127 c 0
 994 51 884 11 728 -1 c 0
 691 -5 673 -4 603 -5 c 0
 530 -5 489 -5 450 -2 c 0
 339 5 260 28 209 65 c 0
 166 97 145 145 145 206 c 0
 145 238 150 274 162 320 c 0
 174 366 205 464 221 509 c 0
 250 588 285 645 330 691 c 0
 346 706 359 717 377 730 c 0
 460 789 569 819 729 824 c 0
907 749 m 0
 892 750 769 751 745 750 c 0
 697 748 666 741 631 725 c 0
 602 710 577 692 551 667 c 0
 505 620 472 560 439 461 c 0
 414 385 393 316 387 280 c 0
 377 232 375 199 381 167 c 0
 391 115 425 81 474 73 c 0
 490 70 506 69 563 68 c 0
 658 67 690 70 725 79 c 0
 771 91 811 115 848 152 c 0
 876 179 897 209 918 251 c 0
 939 291 954 332 979 416 c 0
 999 478 1009 511 1014 543 c 0
 1031 632 1020 691 977 725 c 0
 959 740 938 746 907 749 c 0
EndSplineSet
EndChar

StartChar: P
Encoding: 80 80 47
Width: 862
VWidth: 910
Flags: HW
LayerCount: 2
Fore
SplineSet
343 816 m 2
 344 819 l 1
 458 819 l 2
 521 819 578 819 586 818 c 0
 594 817 611 817 625 816 c 0
 747 811 843 796 907 771 c 0
 938 758 958 744 972 725 c 0
 999 689 1004 640 986 585 c 0
 981 571 967 545 958 532 c 0
 922 477 873 442 807 420 c 0
 726 394 610 378 467 374 c 1
 439 374 l 1
 437 369 l 2
 436 365 413 294 388 209 c 0
 362 124 335 43 330 28 c 2
 321 0 l 1
 205 0 l 2
 99 0 88 0 88 2 c 1
 89 2 92 11 95 21 c 0
 108 63 331 776 336 793 c 0
 340 803 342 814 343 816 c 2
611 743 m 0
 602 743 585 744 574 745 c 0
 555 745 554 745 554 743 c 0
 553 742 533 675 508 595 c 0
 483 515 462 450 462 450 c 2
 462 448 497 449 531 452 c 0
 587 456 629 465 654 477 c 0
 677 488 704 510 722 535 c 0
 739 558 753 586 759 611 c 0
 768 648 763 680 747 705 c 0
 742 711 733 720 728 723 c 0
 709 733 667 740 611 743 c 0
EndSplineSet
EndChar

StartChar: Q
Encoding: 81 81 48
Width: 1144
VWidth: 910
Flags: HW
LayerCount: 2
Fore
SplineSet
729 824 m 0
 759 825 874 825 903 824 c 0
 980 821 1043 813 1090 800 c 0
 1168 778 1215 746 1239 696 c 0
 1260 650 1261 591 1240 507 c 0
 1229 461 1196 356 1179 310 c 0
 1149 230 1116 175 1070 129 c 0
 1063 121 1059 116 1059 116 c 1
 1061 112 1065 96 1067 87 c 0
 1069 78 1069 74 1069 58 c 0
 1069 38 1067 27 1062 9 c 2
 1060 0 l 1
 939 0 l 1
 818 0 l 1
 818 0 819 3 820 5 c 0
 820 8 821 9 821 10 c 1
 820 10 813 9 806 8 c 0
 745 -2 688 -5 583 -5 c 0
 521 -5 486 -5 451 -2 c 0
 315 7 225 38 182 91 c 0
 165 113 154 135 149 162 c 0
 140 204 145 252 162 320 c 0
 174 366 205 464 221 509 c 0
 250 588 285 645 330 691 c 0
 346 706 359 717 377 730 c 0
 460 789 569 819 729 824 c 0
907 749 m 0
 892 750 769 751 745 750 c 0
 697 748 666 741 631 725 c 0
 602 710 577 692 551 667 c 0
 505 620 472 560 439 461 c 0
 414 385 393 316 387 280 c 0
 377 232 375 199 381 167 c 0
 391 115 425 81 474 73 c 0
 490 70 506 69 563 68 c 0
 672 67 706 71 747 86 c 0
 767 93 795 107 810 119 c 0
 816 124 816 123 810 133 c 0
 794 161 767 178 732 183 c 0
 728 183 756 184 802 184 c 2
 877 184 l 1
 884 194 l 2
 909 228 929 267 948 319 c 0
 964 363 996 463 1007 509 c 0
 1034 619 1025 687 977 725 c 0
 959 740 938 746 907 749 c 0
EndSplineSet
EndChar

StartChar: R
Encoding: 82 82 49
Width: 884
VWidth: 910
Flags: HW
LayerCount: 2
Fore
SplineSet
343 816 m 2
 344 819 l 1
 469 819 l 2
 539 818 602 818 615 817 c 0
 693 813 732 811 778 805 c 0
 854 796 920 777 955 757 c 0
 973 747 986 738 996 723 c 0
 1029 680 1029 622 1000 562 c 0
 978 518 945 480 902 453 c 0
 889 446 867 434 853 429 c 0
 804 410 727 393 644 384 c 0
 631 383 620 382 620 381 c 2
 620 381 844 28 861 2 c 1
 862 0 l 1
 745 0 l 1
 629 0 l 1
 526 162 l 2
 470 250 423 323 423 323 c 1
 423 323 404 263 380 188 c 0
 357 113 335 41 330 26 c 2
 321 0 l 1
 205 0 l 2
 99 0 88 0 88 2 c 1
 89 2 92 11 95 21 c 0
 108 63 331 776 336 793 c 0
 340 803 342 814 343 816 c 2
621 743 m 0
 611 743 593 744 579 745 c 2
 554 745 l 1
 553 740 l 2
 552 738 532 672 507 593 c 0
 482 514 462 449 462 449 c 2
 462 448 472 449 485 449 c 0
 552 452 603 457 642 466 c 0
 678 475 701 488 730 517 c 0
 747 534 761 553 771 575 c 0
 792 618 794 664 776 696 c 0
 771 706 759 718 751 722 c 0
 730 732 687 739 621 743 c 0
EndSplineSet
EndChar

StartChar: S
Encoding: 83 83 50
Width: 884
VWidth: 910
Flags: HW
LayerCount: 2
Fore
SplineSet
628 824 m 0
 643 825 772 824 787 823 c 0
 869 818 927 806 966 787 c 0
 975 782 986 775 991 770 c 0
 996 765 1004 755 1007 749 c 0
 1012 738 1013 730 1013 714 c 0
 1014 694 1013 692 1001 654 c 0
 998 646 996 638 996 637 c 2
 875 637 l 1
 754 638 l 1
 764 655 l 2
 773 671 774 676 776 684 c 0
 778 690 780 699 780 704 c 0
 783 727 776 745 766 748 c 0
 760 750 732 751 692 751 c 0
 634 751 621 750 603 742 c 0
 572 729 550 704 530 664 c 0
 519 643 506 609 501 587 c 0
 487 534 509 493 565 465 c 0
 585 454 606 448 642 439 c 0
 698 425 733 412 768 394 c 0
 813 371 843 346 858 315 c 0
 867 299 871 285 872 267 c 0
 873 247 870 233 860 202 c 0
 841 146 821 108 793 80 c 0
 752 39 686 13 595 2 c 0
 549 -4 511 -5 431 -5 c 0
 369 -4 353 -4 318 -1 c 0
 247 5 192 20 161 41 c 0
 152 46 147 50 142 58 c 0
 137 65 133 74 130 84 c 0
 128 89 128 92 128 106 c 0
 128 125 130 133 137 155 c 0
 140 162 142 171 143 175 c 2
 145 182 l 1
 266 182 l 2
 332 182 387 182 387 181 c 2
 387 181 382 173 377 163 c 0
 366 144 364 136 361 117 c 0
 358 98 363 79 371 73 c 0
 375 70 383 69 435 68 c 0
 502 68 515 69 533 76 c 0
 568 91 595 124 616 177 c 0
 624 196 633 226 636 238 c 0
 648 295 618 338 549 365 c 0
 534 370 523 375 492 382 c 0
 438 396 401 409 366 427 c 0
 308 456 275 491 265 535 c 0
 263 547 263 570 266 584 c 0
 269 595 280 632 287 649 c 0
 299 677 314 705 330 725 c 0
 374 778 450 809 565 820 c 0
 580 822 598 823 628 824 c 0
EndSplineSet
EndChar

StartChar: T
Encoding: 84 84 51
Width: 841
VWidth: 910
Flags: HW
LayerCount: 2
Fore
SplineSet
322 818 m 0
 322 819 394 819 676 819 c 0
 871 819 1030 819 1030 818 c 0
 1030 817 1021 784 1019 779 c 0
 1018 777 1015 769 1013 761 c 2
 1008 746 l 1
 889 745 l 1
 771 745 l 1
 663 399 l 2
 603 209 550 41 545 26 c 2
 537 0 l 1
 421 0 l 2
 315 0 304 0 304 2 c 1
 305 2 307 11 310 21 c 0
 314 31 366 198 426 392 c 0
 487 586 536 745 536 745 c 2
 536 746 484 745 418 745 c 0
 353 745 299 745 299 746 c 2
 299 746 309 777 316 800 c 0
 319 809 321 817 322 818 c 0
EndSplineSet
EndChar

StartChar: U
Encoding: 85 85 52
Width: 884
VWidth: 910
Flags: HW
LayerCount: 2
Fore
SplineSet
343 816 m 2
 344 819 l 1
 461 819 l 1
 577 819 l 1
 576 817 l 2
 576 816 574 808 572 800 c 0
 569 791 565 781 564 777 c 0
 563 772 523 645 476 493 c 0
 383 197 386 204 381 185 c 0
 366 126 373 88 400 72 c 2
 404 69 l 1
 443 68 l 2
 501 68 514 69 532 77 c 0
 569 95 598 132 620 188 c 0
 629 211 629 210 722 507 c 0
 768 655 808 785 812 795 c 0
 815 805 818 814 818 816 c 2
 819 819 l 1
 936 819 l 1
 1052 819 l 1
 1051 817 l 2
 1051 816 1049 808 1047 800 c 0
 1044 791 1040 781 1039 777 c 0
 1036 766 870 234 863 213 c 0
 844 153 823 115 794 84 c 0
 767 56 723 32 674 18 c 0
 629 4 581 -2 515 -5 c 0
 486 -6 389 -6 367 -4 c 0
 295 1 246 12 208 30 c 0
 196 35 179 47 171 54 c 0
 159 65 150 81 145 97 c 0
 137 124 140 162 155 214 c 0
 160 229 331 776 337 795 c 0
 340 805 343 814 343 816 c 2
EndSplineSet
EndChar

StartChar: V
Encoding: 86 86 53
Width: 942
VWidth: 910
Flags: HW
LayerCount: 2
Fore
SplineSet
312 813 m 2
 312 819 l 1
 429 819 l 1
 545 819 l 1
 544 816 l 2
 543 807 485 49 485 47 c 0
 485 45 552 166 697 432 c 2
 909 819 l 1
 1025 819 l 2
 1090 819 1141 819 1141 818 c 2
 1141 818 1025 635 883 409 c 2
 624 0 l 1
 471 0 l 1
 319 0 l 1
 319 5 l 2
 318 9 312 788 312 813 c 2
EndSplineSet
EndChar

StartChar: W
Encoding: 87 87 54
Width: 1346
VWidth: 910
Flags: HW
LayerCount: 2
Fore
SplineSet
271 817 m 2
 271 819 l 1
 388 819 l 1
 504 819 l 1
 504 816 l 2
 504 814 491 659 476 471 c 0
 461 283 448 129 448 129 c 2
 449 129 531 262 633 424 c 2
 816 718 l 1
 897 718 l 1
 979 718 l 1
 978 423 l 2
 978 129 978 129 980 132 c 0
 981 134 1066 289 1168 477 c 2
 1354 819 l 1
 1470 819 l 1
 1587 819 l 1
 1582 811 l 2
 1580 806 1480 622 1360 401 c 2
 1142 0 l 1
 944 0 l 1
 745 0 l 1
 745 4 l 2
 747 13 778 334 778 335 c 0
 778 336 738 260 689 168 c 2
 601 1 l 1
 403 0 l 2
 215 0 205 0 205 2 c 0
 205 3 219 186 238 409 c 0
 256 633 271 815 271 817 c 2
EndSplineSet
EndChar

StartChar: X
Encoding: 88 88 55
Width: 884
VWidth: 910
Flags: HW
LayerCount: 2
Fore
SplineSet
320 819 m 2
 437 819 l 1
 553 819 l 1
 586 693 l 2
 603 623 619 565 619 565 c 1
 619 565 670 623 732 692 c 2
 844 819 l 1
 959 819 l 1
 1076 819 l 2
 1076 818 982 729 866 620 c 0
 750 511 655 421 655 421 c 2
 656 420 835 4 836 1 c 0
 836 0 812 0 719 0 c 0
 655 0 603 0 603 1 c 0
 603 2 531 276 530 278 c 0
 530 279 498 244 406 139 c 2
 282 0 l 1
 166 0 l 1
 49 0 l 1
 52 3 l 2
 53 4 153 99 273 213 c 2
 492 421 l 1
 492 424 l 2
 491 426 451 516 405 623 c 0
 359 730 320 818 320 819 c 2
EndSplineSet
EndChar

StartChar: Y
Encoding: 89 89 56
Width: 884
VWidth: 910
Flags: HW
LayerCount: 2
Fore
SplineSet
319 819 m 2
 435 819 l 1
 552 819 l 1
 556 806 l 2
 559 800 562 793 563 791 c 0
 565 788 580 749 599 702 c 0
 617 656 633 617 633 617 c 1
 633 617 661 644 696 679 c 0
 819 799 817 796 824 801 c 0
 829 804 832 807 837 812 c 2
 845 819 l 1
 961 819 l 1
 1078 819 l 1
 1059 801 l 2
 1044 786 1041 782 1040 778 c 0
 1038 773 1045 780 853 592 c 0
 736 478 696 438 695 436 c 0
 695 434 668 348 635 243 c 0
 602 138 572 41 567 26 c 2
 559 0 l 1
 442 0 l 2
 336 0 326 0 326 2 c 1
 327 2 329 11 332 21 c 0
 336 31 366 131 401 242 c 0
 436 354 464 446 464 446 c 2
 464 447 435 522 399 613 c 0
 363 704 333 780 333 780 c 2
 333 781 330 790 326 800 c 0
 322 810 319 818 319 819 c 2
EndSplineSet
EndChar

StartChar: Z
Encoding: 90 90 57
Width: 841
VWidth: 910
Flags: HW
LayerCount: 2
Fore
SplineSet
322 818 m 0
 322 819 396 819 688 819 c 2
 1054 819 l 1
 1049 815 l 2
 1033 797 1019 782 1019 781 c 2
 1019 781 1019 778 1018 776 c 0
 1017 774 876 625 684 424 c 2
 351 75 l 1
 574 74 l 2
 730 74 797 74 797 73 c 0
 797 72 788 40 786 34 c 0
 785 32 783 23 780 15 c 2
 775 1 l 1
 409 0 l 1
 43 0 l 1
 50 7 l 2
 74 32 77 36 78 40 c 0
 78 42 80 44 82 47 c 0
 84 49 234 207 415 398 c 2
 745 745 l 1
 522 745 l 2
 399 745 299 745 299 746 c 2
 299 746 309 777 316 800 c 0
 319 809 321 817 322 818 c 0
EndSplineSet
EndChar

StartChar: bracketleft
Encoding: 91 91 58
Width: 392
VWidth: 910
Flags: HW
LayerCount: 2
Fore
SplineSet
172 447 m 1
 304 870 l 1
 457 870 l 1
 609 870 l 1
 609 834 l 1
 609 796 l 1
 573 796 l 1
 537 796 l 1
 417 411 l 2
 351 199 297 25 296 24 c 0
 296 23 300 23 319 23 c 2
 344 23 l 1
 344 -14 l 1
 344 -51 l 1
 192 -51 l 1
 40 -51 l 1
 40 -14 l 1
 40 24 l 1
 172 447 l 1
EndSplineSet
EndChar

StartChar: backslash
Encoding: 92 92 59
Width: 695
VWidth: 910
Flags: HW
LayerCount: 2
Fore
SplineSet
300 817 m 0
 300 819 307 819 417 819 c 0
 510 819 533 819 533 818 c 0
 533 816 651 4 651 2 c 0
 652 0 645 0 535 0 c 2
 419 1 l 1
 360 409 l 2
 327 633 300 816 300 817 c 0
EndSplineSet
EndChar

StartChar: bracketright
Encoding: 93 93 60
Width: 392
VWidth: 910
Flags: HW
LayerCount: 2
Fore
SplineSet
304 834 m 1
 304 870 l 1
 457 870 l 1
 609 870 l 1
 609 834 l 1
 609 797 l 1
 480 383 l 2
 409 155 349 -36 347 -41 c 2
 344 -51 l 1
 192 -51 l 1
 40 -51 l 1
 40 -14 l 1
 40 23 l 1
 76 23 l 1
 111 23 l 1
 112 27 l 2
 116 36 352 795 352 796 c 2
 329 796 l 1
 304 796 l 1
 304 834 l 1
EndSplineSet
EndChar

StartChar: asciicircum
Encoding: 94 94 61
Width: 493
VWidth: 910
Flags: HW
LayerCount: 2
Fore
SplineSet
419 774 m 2
 459 819 l 1
 502 819 l 1
 547 819 l 1
 549 812 l 2
 553 798 585 668 585 668 c 2
 585 667 566 667 542 667 c 2
 497 667 l 2
 497 668 479 738 479 740 c 0
 479 741 463 725 446 705 c 2
 414 667 l 1
 370 667 l 1
 325 667 l 1
 352 698 l 2
 367 714 397 749 419 774 c 2
EndSplineSet
EndChar

StartChar: underscore
Encoding: 95 95 62
Width: 910
VWidth: 910
Flags: HW
LayerCount: 2
Fore
SplineSet
-12 -36 m 1
 -12 0 l 1
 443 0 l 1
 898 0 l 1
 898 -36 l 1
 898 -74 l 1
 443 -74 l 1
 -12 -74 l 1
 -12 -36 l 1
EndSplineSet
EndChar

StartChar: a
Encoding: 97 97 63
Width: 834
VWidth: 910
Flags: HW
LayerCount: 2
Fore
SplineSet
548 619 m 0
 570 620 639 620 663 619 c 0
 696 617 724 615 745 611 c 0
 752 610 755 610 763 611 c 0
 783 615 799 614 869 614 c 2
 938 614 l 1
 932 596 l 2
 929 586 927 577 927 576 c 0
 927 574 758 34 755 28 c 0
 754 26 752 19 750 12 c 2
 746 0 l 1
 687 0 l 2
 628 0 612 1 594 4 c 0
 585 5 585 5 570 3 c 0
 534 -2 507 -4 451 -5 c 0
 366 -6 315 -2 266 10 c 0
 223 20 189 37 171 56 c 0
 140 91 135 144 155 227 c 0
 170 284 200 379 218 421 c 0
 247 489 285 536 332 565 c 0
 383 596 455 614 548 619 c 0
636 545 m 0
 631 546 580 546 573 545 c 0
 546 541 511 515 485 478 c 0
 459 440 440 398 411 306 c 0
 388 232 380 195 377 160 c 0
 373 122 381 92 396 77 c 0
 406 67 404 68 441 68 c 0
 478 69 480 69 495 76 c 0
 526 91 550 125 569 181 c 0
 578 207 648 433 652 448 c 0
 655 457 657 469 658 475 c 0
 660 487 660 510 658 518 c 0
 655 532 645 544 636 545 c 0
EndSplineSet
EndChar

StartChar: b
Encoding: 98 98 64
Width: 834
VWidth: 910
Flags: HW
LayerCount: 2
Fore
SplineSet
343 816 m 2
 344 819 l 1
 461 819 l 1
 577 819 l 1
 576 817 l 2
 576 816 574 808 571 800 c 0
 569 791 566 783 566 782 c 0
 565 780 556 751 546 717 c 0
 535 683 527 656 527 655 c 1
 528 655 538 655 553 656 c 0
 581 657 651 657 674 655 c 0
 758 649 816 632 852 605 c 0
 891 575 902 522 885 439 c 0
 878 404 858 334 836 268 c 0
 806 178 776 124 735 83 c 0
 693 41 634 16 551 3 c 0
 516 -2 486 -4 435 -5 c 0
 374 -5 327 -3 292 2 c 0
 277 5 272 5 257 3 c 0
 247 1 237 1 167 0 c 0
 102 0 88 0 88 1 c 0
 89 2 92 11 95 21 c 0
 108 62 331 776 336 794 c 0
 340 804 342 814 343 816 c 2
630 582 m 0
 626 584 625 583 603 583 c 0
 578 583 571 583 565 581 c 0
 557 577 542 569 534 562 c 0
 504 538 483 505 464 451 c 0
 458 435 383 199 378 177 c 0
 371 152 367 129 368 114 c 0
 369 101 369 95 374 86 c 0
 378 78 385 71 391 69 c 0
 393 68 403 68 423 68 c 0
 455 69 458 69 475 77 c 0
 489 84 498 92 512 106 c 0
 528 122 539 135 553 159 c 0
 576 197 594 241 621 330 c 0
 643 398 651 431 656 465 c 0
 662 509 660 543 647 565 c 0
 643 570 635 579 630 582 c 0
EndSplineSet
EndChar

StartChar: c
Encoding: 99 99 65
Width: 834
VWidth: 910
Flags: HW
LayerCount: 2
Fore
SplineSet
549 619 m 0
 569 620 678 619 698 618 c 0
 717 617 742 615 756 613 c 0
 800 608 839 598 864 586 c 0
 891 572 905 553 907 527 c 0
 907 515 905 509 898 486 c 0
 894 474 892 465 891 464 c 0
 891 463 866 463 770 463 c 2
 649 463 l 1
 650 465 l 2
 656 475 670 503 672 508 c 0
 674 516 674 532 672 538 c 0
 669 546 671 545 625 546 c 0
 579 546 572 547 560 542 c 0
 529 531 498 502 473 459 c 0
 452 424 436 386 411 306 c 0
 388 232 380 195 377 160 c 0
 373 122 381 92 396 77 c 0
 405 68 404 68 439 68 c 0
 471 68 498 69 509 71 c 0
 516 72 519 74 527 82 c 0
 534 88 541 98 546 108 c 0
 549 114 549 116 551 133 c 0
 551 142 552 150 552 151 c 2
 673 151 l 1
 794 151 l 1
 788 135 l 2
 785 126 783 116 782 112 c 0
 779 104 772 89 767 81 c 0
 744 47 712 28 656 14 c 0
 600 0 537 -5 439 -5 c 0
 385 -5 357 -5 322 0 c 0
 251 8 196 29 171 56 c 0
 140 91 135 144 155 227 c 0
 166 269 191 349 207 391 c 0
 246 496 294 554 370 584 c 0
 417 604 475 615 549 619 c 0
EndSplineSet
EndChar

StartChar: d
Encoding: 100 100 66
Width: 834
VWidth: 910
Flags: HW
LayerCount: 2
Fore
SplineSet
768 817 m 2
 769 819 l 1
 886 819 l 1
 1002 819 l 2
 1002 818 1001 812 998 804 c 0
 995 797 992 786 991 782 c 0
 987 770 759 37 756 30 c 0
 754 26 752 19 750 12 c 2
 746 0 l 1
 687 0 l 2
 628 0 613 1 594 4 c 0
 585 5 584 5 573 3 c 0
 558 1 532 -2 509 -4 c 0
 486 -6 385 -6 365 -4 c 0
 297 1 251 11 216 29 c 0
 183 44 165 63 155 91 c 0
 141 132 147 188 175 280 c 0
 196 345 208 384 219 411 c 0
 224 426 242 460 249 472 c 0
 281 528 321 563 375 585 c 0
 418 602 468 613 535 618 c 0
 569 621 659 620 694 617 c 0
 699 616 705 616 705 616 c 2
 705 617 717 655 732 701 c 0
 747 747 760 791 763 800 c 0
 766 808 768 816 768 817 c 2
636 545 m 0
 631 546 582 546 576 545 c 0
 563 543 547 534 532 522 c 0
 497 495 468 449 443 382 c 0
 435 361 430 344 416 303 c 0
 393 230 386 197 381 162 c 0
 376 117 386 85 407 71 c 2
 411 68 l 1
 435 68 l 2
 466 68 476 69 485 73 c 0
 520 86 548 120 569 181 c 0
 578 207 648 433 652 448 c 0
 655 457 657 469 658 475 c 0
 660 487 660 510 658 518 c 0
 655 532 645 544 636 545 c 0
EndSplineSet
EndChar

StartChar: e
Encoding: 101 101 67
Width: 811
VWidth: 910
Flags: HW
LayerCount: 2
Fore
SplineSet
542 619 m 0
 549 619 569 620 584 620 c 0
 679 620 753 607 798 582 c 0
 828 566 844 545 851 516 c 0
 863 469 852 402 813 285 c 0
 809 273 806 262 806 260 c 2
 805 258 l 1
 601 258 l 1
 397 258 l 1
 395 251 l 2
 383 211 377 180 374 155 c 0
 370 114 379 84 398 71 c 2
 401 68 l 1
 440 68 l 2
 478 69 490 70 495 72 c 0
 499 75 508 84 513 89 c 0
 515 93 519 99 522 104 c 2
 525 112 l 1
 526 129 l 1
 527 147 l 1
 648 147 l 2
 720 147 769 148 769 147 c 2
 769 147 767 137 764 127 c 0
 761 117 757 108 756 105 c 0
 754 98 746 81 740 73 c 0
 711 35 664 14 577 3 c 0
 538 -2 508 -4 445 -5 c 0
 378 -5 343 -4 303 2 c 0
 232 12 184 33 162 63 c 0
 146 84 139 108 140 143 c 0
 142 182 150 218 179 310 c 0
 208 403 227 446 256 489 c 0
 278 522 298 543 326 562 c 0
 375 596 448 614 542 619 c 0
598 543 m 0
 594 546 594 546 584 546 c 0
 572 546 565 545 556 541 c 0
 531 530 505 507 484 474 c 0
 466 447 455 426 440 387 c 0
 435 372 421 334 421 332 c 0
 421 331 451 331 507 331 c 2
 593 332 l 1
 596 340 l 2
 617 408 626 459 622 493 c 0
 619 518 611 534 598 543 c 0
EndSplineSet
EndChar

StartChar: f
Encoding: 102 102 68
Width: 616
VWidth: 910
Flags: HW
LayerCount: 2
Fore
SplineSet
547 824 m 0
 554 824 570 825 584 825 c 0
 678 825 750 809 783 780 c 0
 793 772 800 759 805 744 c 0
 807 736 806 733 806 716 c 0
 806 694 805 682 798 655 c 0
 794 639 783 599 781 595 c 0
 780 594 778 586 775 579 c 2
 771 564 l 1
 650 564 l 1
 529 564 l 2
 529 565 534 573 539 582 c 0
 548 599 548 599 555 622 c 0
 567 661 572 687 574 708 c 0
 574 718 574 734 573 734 c 0
 572 734 560 721 555 712 c 0
 544 695 531 665 521 636 c 0
 518 627 478 503 473 486 c 0
 473 484 478 484 569 484 c 0
 645 484 664 484 664 483 c 0
 663 482 661 474 658 465 c 0
 652 444 647 427 643 417 c 2
 641 410 l 1
 545 410 l 1
 451 411 l 1
 391 223 l 2
 359 119 332 33 330 30 c 0
 329 26 327 19 325 12 c 2
 321 0 l 1
 205 0 l 2
 112 0 88 0 88 1 c 0
 89 2 92 11 95 21 c 0
 113 81 283 625 289 645 c 0
 300 676 316 709 328 728 c 0
 346 754 364 771 389 786 c 0
 425 806 481 820 547 824 c 0
EndSplineSet
EndChar

StartChar: g
Encoding: 103 103 69
Width: 834
VWidth: 910
Flags: HW
LayerCount: 2
Fore
SplineSet
549 619 m 0
 557 619 584 620 609 620 c 0
 668 620 707 618 745 614 c 0
 766 611 765 611 786 613 c 0
 797 614 820 614 870 614 c 2
 938 614 l 1
 932 595 l 2
 921 560 730 -55 725 -70 c 0
 718 -95 709 -112 694 -130 c 0
 680 -146 665 -159 644 -169 c 0
 597 -193 529 -205 432 -209 c 0
 401 -210 293 -210 271 -208 c 0
 208 -203 166 -198 131 -185 c 0
 116 -180 95 -170 87 -164 c 0
 75 -156 67 -142 63 -127 c 0
 60 -120 59 -104 61 -94 c 0
 62 -85 65 -70 69 -61 c 0
 70 -58 73 -51 75 -46 c 2
 77 -35 l 1
 198 -35 l 1
 319 -35 l 1
 316 -42 l 2
 314 -46 310 -54 306 -59 c 0
 301 -67 300 -72 298 -79 c 0
 293 -98 293 -116 298 -127 c 0
 302 -136 298 -136 350 -137 c 0
 398 -137 428 -136 438 -133 c 0
 446 -131 451 -127 461 -118 c 0
 470 -109 481 -96 486 -83 c 0
 488 -78 495 -60 500 -42 c 0
 505 -24 510 -8 511 -7 c 2
 512 -5 l 1
 458 -5 l 2
 392 -5 357 -4 319 1 c 0
 250 9 196 30 171 56 c 0
 140 91 135 144 155 227 c 0
 166 269 191 349 207 391 c 0
 242 487 286 543 352 577 c 0
 399 601 468 615 549 619 c 0
668 544 m 0
 666 545 663 545 623 546 c 0
 599 546 576 545 573 545 c 0
 545 541 511 515 485 478 c 0
 459 440 440 398 411 306 c 0
 388 232 380 195 377 160 c 0
 373 122 381 92 396 77 c 0
 405 68 404 68 439 68 c 0
 471 68 498 69 509 71 c 0
 513 72 516 73 518 75 c 0
 529 81 541 96 546 109 c 0
 551 118 672 508 673 514 c 0
 675 525 673 539 668 544 c 0
EndSplineSet
EndChar

StartChar: h
Encoding: 104 104 70
Width: 834
VWidth: 910
Flags: HW
LayerCount: 2
Fore
SplineSet
343 816 m 2
 344 819 l 1
 461 819 l 1
 577 819 l 2
 577 818 576 812 573 804 c 0
 570 797 567 786 566 782 c 0
 564 776 518 626 516 620 c 0
 515 620 530 619 568 620 c 0
 622 620 651 619 682 616 c 0
 769 609 831 587 857 552 c 0
 867 539 873 521 877 503 c 0
 879 489 880 458 877 439 c 0
 873 414 866 383 856 350 c 0
 849 324 758 36 756 30 c 0
 754 26 752 19 750 12 c 2
 746 0 l 1
 630 0 l 2
 537 0 513 0 513 1 c 0
 514 2 517 11 520 21 c 0
 523 31 547 109 573 194 c 0
 623 354 628 367 634 391 c 0
 643 427 645 449 645 474 c 0
 645 494 645 503 640 516 c 0
 635 529 629 538 620 543 c 2
 616 546 l 1
 587 546 l 2
 556 546 528 545 519 543 c 0
 512 542 508 540 501 533 c 0
 493 526 487 518 482 509 c 0
 478 503 458 436 405 267 c 0
 365 139 331 31 330 28 c 0
 329 26 327 19 325 12 c 2
 321 0 l 1
 205 0 l 2
 112 0 88 0 88 1 c 0
 89 2 92 11 95 21 c 0
 108 62 331 776 336 794 c 0
 340 804 342 814 343 816 c 2
EndSplineSet
EndChar

StartChar: i
Encoding: 105 105 71
Width: 429
VWidth: 910
Flags: HW
LayerCount: 2
Fore
SplineSet
411 753 m 0
 453 757 502 751 530 740 c 0
 555 731 562 717 550 705 c 0
 532 687 468 676 412 681 c 0
 346 686 311 705 326 726 c 0
 336 739 370 749 411 753 c 0
290 613 m 0
 290 614 314 614 407 614 c 0
 500 614 523 614 523 613 c 0
 518 600 512 577 512 576 c 0
 512 574 343 34 340 28 c 0
 339 26 337 19 335 12 c 2
 331 0 l 1
 215 0 l 2
 122 0 98 0 98 1 c 0
 99 2 102 11 105 21 c 0
 115 55 275 567 282 590 c 0
 287 602 289 612 290 613 c 0
EndSplineSet
EndChar

StartChar: j
Encoding: 106 106 72
Width: 594
VWidth: 910
Flags: HW
LayerCount: 2
Fore
SplineSet
585 753 m 0
 627 757 677 751 705 740 c 0
 730 731 737 717 725 705 c 0
 707 687 643 676 587 681 c 0
 521 686 486 705 501 726 c 0
 511 739 544 749 585 753 c 0
465 613 m 0
 465 614 489 614 582 614 c 0
 675 614 698 614 698 613 c 0
 695 605 686 576 685 573 c 0
 683 566 519 39 512 16 c 0
 498 -25 489 -48 474 -76 c 0
 463 -97 456 -108 445 -123 c 0
 431 -141 421 -150 404 -162 c 0
 367 -187 315 -202 245 -208 c 0
 225 -210 168 -210 148 -208 c 0
 87 -202 43 -189 16 -168 c 0
 -8 -150 -16 -127 -15 -87 c 0
 -13 -53 -4 -9 17 57 c 0
 20 66 25 81 28 89 c 0
 30 98 33 105 33 106 c 2
 154 106 l 1
 275 106 l 1
 264 86 l 2
 259 76 254 67 254 66 c 0
 254 65 252 57 248 45 c 0
 231 -11 221 -47 218 -77 c 0
 217 -90 217 -106 218 -106 c 2
 218 -106 221 -102 225 -97 c 0
 243 -70 260 -35 277 16 c 0
 281 24 321 153 367 302 c 0
 413 451 454 582 458 593 c 0
 462 604 464 612 465 613 c 0
EndSplineSet
EndChar

StartChar: k
Encoding: 107 107 73
Width: 790
VWidth: 910
Flags: HW
LayerCount: 2
Fore
SplineSet
343 816 m 2
 344 819 l 1
 461 819 l 1
 577 819 l 2
 577 818 576 812 573 804 c 0
 570 797 567 786 566 782 c 0
 564 777 541 702 514 616 c 0
 487 529 465 458 465 458 c 1
 465 458 533 500 615 554 c 2
 765 652 l 1
 882 652 l 1
 998 652 l 1
 769 520 l 2
 643 448 540 388 540 388 c 2
 539 387 567 340 657 195 c 0
 722 89 775 2 776 1 c 0
 776 0 753 0 660 0 c 2
 544 0 l 1
 480 147 l 2
 444 228 414 295 414 294 c 2
 414 294 395 235 373 163 c 0
 350 92 331 31 330 28 c 0
 329 26 327 19 325 12 c 2
 321 0 l 1
 205 0 l 2
 112 0 88 0 88 1 c 0
 89 2 92 11 95 21 c 0
 108 62 331 776 336 794 c 0
 340 804 342 814 343 816 c 2
EndSplineSet
EndChar

StartChar: l
Encoding: 108 108 74
Width: 429
VWidth: 910
Flags: HW
LayerCount: 2
Fore
SplineSet
353 816 m 2
 354 819 l 1
 471 819 l 1
 587 819 l 2
 587 818 586 811 583 803 c 0
 580 794 576 783 575 779 c 0
 570 764 350 57 340 28 c 2
 331 0 l 1
 215 0 l 2
 109 0 98 0 98 2 c 1
 99 2 102 11 105 21 c 0
 118 63 341 776 346 793 c 0
 350 803 352 814 353 816 c 2
EndSplineSet
EndChar

StartChar: m
Encoding: 109 109 75
Width: 1188
VWidth: 910
Flags: HW
LayerCount: 2
Fore
SplineSet
528 619 m 0
 543 620 628 619 640 618 c 0
 692 613 733 606 764 593 c 2
 772 591 l 1
 783 594 l 2
 836 612 905 621 986 620 c 0
 1002 619 1022 619 1029 618 c 0
 1105 613 1160 597 1194 572 c 0
 1223 551 1235 519 1234 472 c 0
 1233 440 1225 402 1210 348 c 0
 1202 322 1112 33 1110 28 c 0
 1109 26 1106 19 1104 12 c 2
 1100 0 l 1
 984 0 l 2
 891 0 867 0 867 1 c 0
 868 2 871 11 874 21 c 0
 877 31 901 106 926 188 c 0
 984 373 987 384 994 419 c 0
 1007 484 1002 527 979 543 c 0
 975 546 974 546 968 546 c 0
 963 546 959 545 955 545 c 0
 948 542 931 534 924 529 c 0
 895 507 870 470 847 418 c 0
 832 383 828 370 772 193 c 0
 745 107 722 34 721 30 c 0
 719 26 717 19 715 12 c 2
 711 0 l 1
 594 0 l 2
 501 0 478 0 478 1 c 0
 479 2 481 11 484 21 c 0
 487 31 511 106 536 188 c 0
 594 373 597 384 604 419 c 0
 617 484 613 527 590 543 c 2
 586 546 l 1
 569 546 l 2
 547 546 542 546 532 541 c 0
 503 527 482 498 464 451 c 0
 461 444 433 353 399 247 c 0
 366 142 338 50 335 43 c 0
 332 33 331 29 328 26 c 0
 324 22 324 22 323 15 c 0
 322 10 322 6 321 4 c 2
 321 0 l 1
 205 0 l 2
 99 0 88 0 88 2 c 1
 89 2 92 11 95 21 c 0
 102 46 269 579 275 599 c 2
 280 614 l 1
 339 614 l 2
 395 614 415 614 431 612 c 0
 436 611 439 611 446 612 c 0
 465 616 498 618 528 619 c 0
EndSplineSet
EndChar

StartChar: n
Encoding: 110 110 76
Width: 834
VWidth: 910
Flags: HW
LayerCount: 2
Fore
SplineSet
542 619 m 0
 559 620 629 620 646 619 c 0
 734 614 798 599 836 572 c 0
 858 557 872 533 877 503 c 0
 879 489 880 458 877 439 c 0
 873 414 866 383 856 350 c 0
 849 324 758 36 756 30 c 0
 754 26 752 19 750 12 c 2
 746 0 l 1
 630 0 l 2
 537 0 513 0 513 1 c 0
 514 2 517 11 520 21 c 0
 523 31 547 109 573 194 c 0
 623 355 628 367 634 391 c 0
 643 427 645 449 645 474 c 0
 645 494 645 503 640 516 c 0
 636 526 631 534 625 539 c 0
 617 547 618 546 583 546 c 0
 547 545 546 545 532 538 c 0
 507 526 486 501 471 467 c 0
 463 448 455 426 396 238 c 0
 362 130 334 39 333 35 c 0
 332 32 330 28 328 26 c 0
 325 22 324 22 323 15 c 0
 322 10 322 6 321 4 c 2
 321 0 l 1
 205 0 l 2
 99 0 88 0 88 2 c 1
 89 2 92 11 95 21 c 0
 103 46 269 579 275 599 c 2
 280 614 l 1
 339 614 l 2
 397 614 414 614 432 611 c 0
 440 610 442 610 453 612 c 0
 475 616 509 618 542 619 c 0
EndSplineSet
EndChar

StartChar: o
Encoding: 111 111 77
Width: 942
VWidth: 910
Flags: HW
LayerCount: 2
Fore
SplineSet
588 619 m 0
 608 620 706 620 725 619 c 0
 819 615 883 603 930 579 c 0
 974 557 998 528 1006 485 c 0
 1008 476 1008 471 1008 454 c 0
 1008 431 1007 424 1002 400 c 0
 995 360 967 268 949 222 c 0
 911 128 859 71 777 36 c 0
 727 15 663 2 589 -3 c 0
 533 -7 428 -7 373 -3 c 0
 302 2 243 15 203 35 c 0
 159 57 135 86 127 129 c 0
 125 138 126 143 126 160 c 0
 126 186 129 205 137 238 c 0
 142 263 159 321 173 358 c 0
 207 459 249 517 317 557 c 0
 381 595 467 615 588 619 c 0
706 545 m 0
 690 546 615 546 597 545 c 0
 581 544 569 543 556 538 c 0
 502 521 457 474 427 408 c 0
 415 382 405 356 389 303 c 0
 371 243 364 218 360 187 c 0
 358 174 358 145 360 134 c 0
 363 123 366 110 371 102 c 0
 376 93 389 81 398 76 c 0
 407 71 413 70 430 69 c 0
 450 68 537 68 550 70 c 0
 614 77 671 127 707 207 c 0
 718 232 728 257 742 300 c 0
 767 381 775 417 775 454 c 0
 775 474 774 483 769 498 c 0
 764 510 759 518 750 527 c 0
 737 540 727 544 706 545 c 0
EndSplineSet
EndChar

StartChar: p
Encoding: 112 112 78
Width: 811
VWidth: 910
Flags: HW
LayerCount: 2
Fore
SplineSet
523 619 m 0
 547 620 615 620 638 619 c 0
 727 614 790 600 829 573 c 0
 854 557 869 534 875 502 c 0
 878 487 878 455 875 435 c 0
 871 411 866 385 857 354 c 0
 851 332 833 276 825 253 c 0
 798 172 769 122 731 83 c 0
 676 29 593 1 466 -5 c 0
 440 -6 380 -6 354 -5 c 0
 343 -4 331 -4 328 -4 c 2
 321 -3 l 1
 298 -76 l 2
 286 -116 273 -155 271 -162 c 0
 268 -170 267 -174 264 -177 c 0
 261 -182 261 -184 259 -194 c 2
 258 -205 l 1
 141 -205 l 2
 77 -205 25 -205 25 -204 c 0
 25 -203 263 561 275 599 c 2
 280 614 l 1
 345 614 l 2
 397 614 412 614 421 613 c 0
 436 611 443 610 460 613 c 0
 477 615 501 618 523 619 c 0
614 544 m 0
 610 546 608 546 583 546 c 0
 548 546 545 546 534 541 c 0
 521 535 515 530 504 519 c 0
 487 502 474 478 460 441 c 0
 455 426 378 180 374 165 c 0
 362 117 365 87 380 72 c 2
 384 68 l 1
 415 68 l 2
 444 69 447 69 453 71 c 0
 473 77 495 91 514 112 c 0
 545 144 569 190 593 260 c 0
 601 282 618 338 624 360 c 0
 647 439 649 489 634 522 c 0
 629 531 620 541 614 544 c 0
EndSplineSet
EndChar

StartChar: q
Encoding: 113 113 79
Width: 811
VWidth: 910
Flags: HW
LayerCount: 2
Fore
SplineSet
534 619 m 0
 555 620 650 619 668 618 c 0
 675 617 687 616 694 615 c 0
 704 614 720 614 755 614 c 0
 804 614 816 614 837 611 c 0
 876 606 904 592 904 578 c 0
 904 576 731 19 672 -167 c 0
 671 -172 668 -175 666 -178 c 0
 663 -182 664 -184 662 -194 c 2
 660 -205 l 1
 543 -205 l 2
 479 -205 427 -205 427 -204 c 2
 427 -204 435 -175 463 -86 c 0
 477 -40 489 -5 489 -5 c 2
 489 -4 482 -5 475 -5 c 0
 454 -6 388 -6 366 -5 c 0
 277 0 214 15 175 42 c 0
 150 58 135 80 129 112 c 0
 126 127 126 159 129 179 c 0
 134 213 141 240 161 305 c 0
 184 379 197 414 215 449 c 0
 261 540 322 585 431 607 c 0
 458 612 498 617 534 619 c 0
624 542 m 2
 620 546 l 1
 593 546 l 2
 578 546 563 545 560 545 c 0
 546 543 528 535 513 525 c 0
 476 497 447 453 421 384 c 0
 408 351 382 267 373 229 c 0
 353 153 356 102 380 78 c 0
 390 68 389 68 421 68 c 0
 455 68 460 69 471 74 c 0
 483 80 489 85 500 95 c 0
 517 112 529 132 542 167 c 0
 547 179 621 416 627 440 c 0
 642 494 641 527 624 542 c 2
EndSplineSet
EndChar

StartChar: r
Encoding: 114 114 80
Width: 740
VWidth: 910
Flags: HW
LayerCount: 2
Fore
SplineSet
512 619 m 0
 535 620 623 620 648 619 c 0
 757 614 825 598 849 569 c 0
 857 559 861 548 861 535 c 0
 861 528 860 525 853 502 c 2
 847 486 l 1
 729 485 l 1
 610 485 l 1
 618 503 l 2
 627 523 629 532 628 540 c 2
 627 545 l 1
 620 545 l 2
 615 546 595 546 574 546 c 2
 537 546 l 1
 529 542 l 2
 504 529 482 502 466 461 c 0
 464 455 434 358 399 246 c 0
 364 133 334 39 333 35 c 0
 332 32 330 28 328 26 c 0
 325 22 324 22 323 15 c 0
 322 10 322 6 321 4 c 2
 321 0 l 1
 205 0 l 2
 99 0 88 0 88 2 c 1
 89 2 92 11 95 21 c 0
 102 46 269 579 275 599 c 2
 280 614 l 1
 345 614 l 2
 395 614 412 614 421 613 c 0
 434 611 431 610 453 613 c 0
 475 616 490 618 512 619 c 0
EndSplineSet
EndChar

StartChar: s
Encoding: 115 115 81
Width: 834
VWidth: 910
Flags: HW
LayerCount: 2
Fore
SplineSet
539 619 m 0
 555 620 683 619 698 618 c 0
 718 617 743 615 756 613 c 0
 800 608 839 598 864 586 c 0
 891 572 905 553 907 527 c 0
 907 515 905 509 898 486 c 0
 894 474 892 465 891 464 c 0
 891 463 867 463 773 463 c 2
 654 463 l 1
 654 466 l 2
 655 468 659 476 663 484 c 0
 667 492 670 502 671 507 c 0
 674 516 674 531 672 538 c 0
 668 546 673 545 618 546 c 0
 567 546 542 545 533 542 c 0
 508 537 487 517 471 484 c 0
 454 451 447 420 451 401 c 0
 454 388 459 379 468 370 c 0
 480 358 492 353 511 348 c 0
 522 345 527 344 557 341 c 0
 624 336 687 320 728 299 c 0
 763 282 784 264 796 240 c 0
 803 225 804 218 804 201 c 0
 804 184 803 178 796 156 c 0
 781 111 760 79 734 57 c 0
 693 25 624 5 533 -2 c 0
 499 -5 466 -5 405 -5 c 0
 345 -4 330 -5 298 -1 c 0
 241 4 193 14 164 28 c 0
 137 41 122 61 120 86 c 0
 120 98 121 106 127 127 c 0
 131 136 134 145 135 147 c 2
 136 151 l 1
 254 151 l 1
 373 151 l 1
 365 133 l 2
 361 123 357 112 356 108 c 0
 353 98 353 83 355 76 c 0
 359 68 354 69 409 68 c 0
 463 68 481 69 492 72 c 0
 522 81 546 112 563 164 c 0
 569 181 571 188 571 201 c 0
 571 214 568 222 563 232 c 0
 554 249 532 264 506 269 c 0
 502 270 488 271 474 272 c 0
 373 282 302 303 257 338 c 0
 239 353 224 371 219 392 c 0
 216 401 216 424 218 435 c 0
 223 452 231 476 241 494 c 0
 266 544 299 572 359 592 c 0
 405 608 461 616 539 619 c 0
EndSplineSet
EndChar

StartChar: t
Encoding: 116 116 82
Width: 594
VWidth: 910
Flags: HW
LayerCount: 2
Fore
SplineSet
437 818 m 1
 437 819 489 819 553 819 c 2
 670 819 l 1
 664 800 l 2
 661 789 647 744 633 698 c 2
 606 615 l 1
 674 614 l 2
 711 614 742 614 742 613 c 0
 742 612 732 579 730 574 c 0
 729 572 727 564 725 556 c 2
 719 542 l 1
 652 541 l 1
 583 541 l 1
 504 289 l 2
 461 151 424 33 421 25 c 0
 418 18 416 9 415 5 c 2
 414 0 l 1
 298 0 l 2
 234 0 181 0 181 1 c 0
 181 2 192 39 270 289 c 0
 313 427 349 540 349 540 c 2
 349 541 317 541 280 541 c 0
 221 541 213 541 213 542 c 0
 214 543 216 552 219 562 c 0
 222 572 227 587 230 597 c 2
 236 614 l 1
 304 614 l 1
 372 614 l 1
 373 619 l 2
 374 621 386 659 400 704 c 0
 415 749 426 785 427 787 c 0
 427 789 429 797 432 805 c 0
 434 812 436 818 437 818 c 1
EndSplineSet
EndChar

StartChar: u
Encoding: 117 117 83
Width: 834
VWidth: 910
Flags: HW
LayerCount: 2
Fore
SplineSet
280 613 m 0
 280 614 304 614 397 614 c 2
 513 614 l 1
 512 611 l 2
 506 591 495 555 453 421 c 0
 427 335 403 260 401 252 c 0
 392 221 387 197 383 173 c 0
 380 155 380 127 382 114 c 0
 386 98 392 84 401 76 c 0
 409 68 408 68 443 68 c 0
 479 69 481 69 496 76 c 0
 526 91 548 123 567 175 c 0
 570 182 600 277 634 386 c 0
 668 494 697 590 700 599 c 2
 705 614 l 1
 822 614 l 2
 915 614 938 614 938 613 c 0
 933 600 927 577 927 576 c 0
 927 575 888 452 842 303 c 0
 777 98 757 28 755 20 c 0
 754 14 752 7 752 5 c 2
 751 0 l 1
 689 0 l 2
 629 0 612 1 594 4 c 0
 586 5 586 5 571 3 c 0
 535 -2 507 -4 451 -5 c 0
 391 -5 354 -4 318 1 c 0
 262 9 219 23 191 43 c 0
 169 58 154 81 149 111 c 0
 147 125 147 157 150 176 c 0
 154 201 159 227 170 262 c 0
 175 283 263 563 273 592 c 0
 277 603 279 612 280 613 c 0
EndSplineSet
EndChar

StartChar: v
Encoding: 118 118 84
Width: 790
VWidth: 910
Flags: HW
LayerCount: 2
Fore
SplineSet
249 614 m 2
 366 614 l 1
 482 614 l 1
 482 612 l 2
 481 607 411 51 411 50 c 2
 411 50 475 176 552 332 c 2
 692 614 l 1
 808 614 l 1
 925 614 l 1
 923 612 l 2
 922 610 837 471 735 304 c 2
 550 0 l 1
 395 0 l 1
 241 0 l 1
 241 17 l 2
 241 30 249 612 249 614 c 2
EndSplineSet
EndChar

StartChar: w
Encoding: 119 119 85
Width: 1245
VWidth: 910
Flags: HW
LayerCount: 2
Fore
SplineSet
208 613 m 2
 208 614 258 614 324 614 c 0
 398 614 441 614 441 613 c 2
 441 613 435 502 430 366 c 0
 424 230 418 120 418 119 c 2
 418 119 489 230 575 367 c 2
 733 614 l 1
 815 614 l 1
 897 614 l 1
 897 593 l 2
 897 576 900 198 901 135 c 2
 902 118 l 1
 1045 366 l 1
 1189 614 l 1
 1305 614 l 1
 1422 614 l 1
 1244 308 l 1
 1066 1 l 1
 868 0 l 2
 755 0 670 0 670 1 c 2
 670 1 676 51 682 112 c 0
 687 173 693 223 693 223 c 2
 693 224 667 174 634 112 c 2
 575 1 l 1
 378 0 l 1
 179 0 l 2
 179 1 186 139 193 307 c 0
 201 475 208 613 208 613 c 2
EndSplineSet
EndChar

StartChar: x
Encoding: 120 120 86
Width: 790
VWidth: 910
Flags: HW
LayerCount: 2
Fore
SplineSet
274 613 m 0
 274 615 279 614 390 614 c 2
 506 614 l 1
 523 542 l 2
 532 502 541 469 541 468 c 2
 541 468 569 501 604 541 c 2
 668 614 l 1
 784 614 l 1
 900 614 l 1
 897 612 l 2
 896 611 823 544 736 464 c 0
 649 385 577 320 577 319 c 1
 576 319 610 246 650 159 c 0
 691 72 724 1 724 0 c 2
 607 0 l 2
 543 0 491 0 491 1 c 0
 491 3 450 170 449 170 c 1
 449 171 414 133 373 86 c 2
 299 0 l 1
 183 0 l 1
 66 0 l 1
 68 2 l 2
 79 11 412 319 412 319 c 2
 412 320 381 386 343 466 c 0
 306 546 275 612 274 613 c 0
EndSplineSet
EndChar

StartChar: y
Encoding: 121 121 87
Width: 790
VWidth: 910
Flags: HW
LayerCount: 2
Fore
SplineSet
244 613 m 0
 244 614 282 614 360 614 c 2
 477 614 l 1
 477 607 l 2
 477 600 482 329 482 318 c 2
 483 310 l 1
 590 462 l 1
 697 614 l 1
 814 614 l 1
 930 614 l 1
 926 608 l 2
 923 604 793 419 637 198 c 2
 353 -205 l 1
 237 -205 l 1
 120 -205 l 2
 120 -204 164 -140 219 -63 c 0
 293 42 319 78 319 80 c 0
 319 81 302 202 281 348 c 0
 260 494 244 612 244 613 c 0
EndSplineSet
EndChar

StartChar: z
Encoding: 122 122 88
Width: 790
VWidth: 910
Flags: HW
LayerCount: 2
Fore
SplineSet
258 613 m 0
 258 614 327 614 602 614 c 2
 945 614 l 1
 925 596 l 2
 909 581 905 577 904 574 c 0
 904 572 902 570 901 569 c 0
 899 567 777 455 629 320 c 2
 359 75 l 1
 553 74 l 2
 689 74 746 74 746 73 c 0
 746 72 737 40 735 34 c 0
 734 32 732 23 729 15 c 2
 724 1 l 1
 380 0 l 1
 37 0 l 1
 57 18 l 2
 72 32 77 37 77 39 c 0
 78 41 79 44 81 46 c 0
 82 48 205 159 353 295 c 2
 624 541 l 1
 430 541 l 1
 235 541 l 1
 241 560 l 2
 244 570 249 586 252 595 c 0
 255 604 258 612 258 613 c 0
EndSplineSet
EndChar

StartChar: braceleft
Encoding: 123 123 89
Width: 442
VWidth: 910
Flags: HW
LayerCount: 2
Fore
SplineSet
522 869 m 0
 539 870 544 870 561 869 c 0
 597 867 627 860 644 851 c 0
 651 846 655 841 658 836 c 0
 659 832 659 833 658 829 c 0
 657 826 656 824 654 823 c 0
 649 817 635 811 618 806 c 0
 610 803 606 800 599 793 c 0
 588 780 571 744 554 696 c 0
 548 677 544 665 521 592 c 0
 485 479 463 435 431 412 c 0
 426 408 423 406 423 406 c 2
 423 405 424 403 426 401 c 0
 430 396 434 388 436 380 c 0
 440 362 432 318 415 257 c 0
 412 247 403 219 396 195 c 0
 380 141 374 122 368 97 c 0
 359 57 355 26 359 16 c 0
 361 12 361 12 364 11 c 0
 366 10 371 8 376 5 c 0
 385 0 391 -5 393 -10 c 0
 400 -32 348 -50 278 -50 c 0
 247 -50 222 -47 196 -40 c 0
 155 -30 131 -11 125 16 c 0
 122 31 126 61 136 102 c 0
 142 128 148 146 164 201 c 0
 188 276 195 305 200 336 c 0
 204 357 205 374 202 380 c 0
 200 384 200 384 197 385 c 0
 195 386 190 387 185 390 c 0
 167 399 162 411 172 421 c 0
 178 427 195 434 212 439 c 0
 214 440 217 441 221 445 c 0
 239 461 261 510 289 599 c 0
 312 671 316 684 322 704 c 0
 340 755 356 790 371 808 c 0
 379 818 384 823 395 831 c 0
 423 852 469 866 522 869 c 0
EndSplineSet
EndChar

StartChar: bar
Encoding: 124 124 90
Width: 493
VWidth: 910
Flags: HW
LayerCount: 2
Fore
SplineSet
259 447 m 1
 375 819 l 1
 492 819 l 1
 608 819 l 1
 608 783 l 1
 608 747 l 1
 492 373 l 1
 375 0 l 1
 259 0 l 1
 142 0 l 1
 142 37 l 1
 142 75 l 1
 259 447 l 1
EndSplineSet
EndChar

StartChar: braceright
Encoding: 125 125 91
Width: 442
VWidth: 910
Flags: HW
LayerCount: 2
Fore
SplineSet
390 869 m 0
 423 871 464 867 494 860 c 0
 536 848 560 830 567 802 c 0
 570 787 566 755 557 715 c 0
 549 685 543 665 525 607 c 0
 509 554 501 526 496 500 c 0
 490 471 489 449 492 441 c 0
 494 438 494 437 502 434 c 0
 543 420 542 398 499 384 c 0
 494 382 486 381 483 380 c 0
 478 379 477 377 471 371 c 0
 464 364 456 353 448 336 c 0
 433 305 420 270 396 194 c 0
 390 172 382 148 379 139 c 0
 359 77 338 34 321 12 c 0
 296 -20 252 -40 191 -47 c 0
 122 -56 48 -45 32 -22 c 0
 22 -7 40 7 76 16 c 0
 82 17 84 19 90 25 c 0
 97 32 103 40 112 59 c 0
 127 89 139 122 164 200 c 0
 189 279 202 313 218 347 c 0
 233 378 244 392 263 407 c 0
 268 410 271 412 271 413 c 2
 268 419 l 2
 257 434 255 447 259 475 c 0
 262 505 271 544 293 613 c 0
 324 713 334 755 334 786 c 0
 334 798 334 799 332 803 c 0
 331 805 330 806 328 806 c 0
 323 808 311 812 306 816 c 0
 299 821 296 825 294 830 c 0
 293 833 293 834 295 838 c 0
 299 845 307 851 322 857 c 0
 337 862 365 867 390 869 c 0
EndSplineSet
EndChar

StartChar: asciitilde
Encoding: 126 126 92
Width: 998
VWidth: 910
Flags: HW
LayerCount: 2
Fore
SplineSet
403 445 m 0
 421 446 501 446 517 445 c 0
 591 441 642 431 677 413 c 0
 695 404 707 394 713 380 c 0
 718 369 719 361 719 346 c 0
 718 331 716 320 711 301 c 0
 703 275 702 258 707 246 c 2
 708 242 l 1
 739 242 l 2
 770 242 771 243 776 245 c 0
 783 249 795 262 802 273 c 0
 809 286 812 292 821 320 c 2
 829 344 l 1
 946 344 l 1
 1062 344 l 1
 1056 325 l 2
 1053 315 1050 303 1048 298 c 0
 1040 272 1023 243 1006 228 c 0
 969 193 898 174 794 169 c 0
 768 168 698 168 673 169 c 0
 623 172 582 178 551 187 c 0
 478 208 458 240 478 307 c 0
 487 336 487 358 482 370 c 2
 482 372 l 1
 451 372 l 2
 415 371 416 373 403 360 c 0
 388 345 380 327 367 286 c 2
 361 271 l 1
 245 270 l 1
 128 270 l 1
 133 285 l 2
 136 292 138 303 140 308 c 0
 148 339 166 369 185 386 c 0
 222 421 297 441 403 445 c 0
EndSplineSet
EndChar

StartChar: Adieresis
Encoding: 196 196 93
Width: 942
VWidth: 910
Flags: HW
LayerCount: 2
Fore
SplineSet
563 943 m 0
 605 947 655 941 683 930 c 0
 708 921 715 908 703 896 c 0
 685 878 621 866 565 871 c 0
 499 876 464 896 479 917 c 0
 489 930 522 939 563 943 c 0
889 943 m 0
 931 947 981 941 1009 930 c 0
 1034 921 1041 908 1029 896 c 0
 1011 878 947 866 891 871 c 0
 825 876 790 896 805 917 c 0
 815 930 848 939 889 943 c 0
316 411 m 2
 574 819 l 1
 727 819 l 1
 880 819 l 1
 880 800 l 2
 880 785 885 194 886 31 c 1
 887 0 l 1
 770 0 l 1
 654 0 l 1
 654 3 l 2
 654 6 674 272 675 280 c 2
 675 286 l 1
 561 286 l 1
 445 286 l 1
 367 143 l 1
 289 0 l 1
 173 0 l 2
 107 0 56 0 56 1 c 2
 56 1 173 186 316 411 c 2
697 568 m 0
 706 682 714 776 714 776 c 2
 713 776 487 361 486 360 c 0
 486 359 529 360 583 360 c 2
 681 360 l 1
 681 360 688 453 697 568 c 0
EndSplineSet
EndChar

StartChar: Ccedilla
Encoding: 199 199 94
Width: 884
VWidth: 910
Flags: HW
LayerCount: 2
Fore
SplineSet
644 824 m 0
 662 825 774 824 796 823 c 0
 869 819 921 811 962 797 c 0
 985 789 1002 781 1014 771 c 0
 1024 763 1034 748 1038 733 c 0
 1040 727 1039 723 1039 710 c 0
 1039 691 1039 687 1031 662 c 0
 1027 652 1025 643 1024 641 c 2
 1023 638 l 1
 902 637 l 1
 781 637 l 1
 791 655 l 2
 802 675 803 681 806 697 c 0
 809 715 804 737 796 744 c 0
 794 747 793 746 786 748 c 0
 772 750 731 751 698 751 c 0
 673 750 667 750 661 748 c 0
 633 742 605 725 582 701 c 0
 536 654 500 581 461 460 c 0
 422 340 404 276 396 229 c 0
 381 142 393 91 430 73 c 2
 437 69 l 1
 481 69 l 2
 551 69 575 72 590 82 c 0
 604 91 621 111 629 129 c 0
 635 142 636 146 637 162 c 0
 638 169 638 177 639 179 c 2
 639 182 l 1
 760 182 l 1
 881 182 l 1
 875 163 l 2
 866 133 865 129 860 120 c 0
 846 90 824 64 796 47 c 0
 762 26 702 10 634 2 c 0
 626 2 619 1 618 0 c 0
 616 0 615 -1 615 -12 c 0
 615 -23 615 -26 613 -32 c 0
 602 -65 576 -90 544 -96 c 0
 536 -98 530 -97 420 -97 c 0
 322 -97 305 -97 310 -96 c 0
 342 -90 370 -65 380 -32 c 0
 383 -24 384 -11 383 -6 c 2
 382 -3 l 1
 376 -2 l 1
 262 9 194 40 170 92 c 0
 147 140 153 216 188 337 c 0
 208 403 237 496 253 539 c 0
 286 625 321 685 363 727 c 0
 420 784 513 817 644 824 c 0
EndSplineSet
EndChar

StartChar: Odieresis
Encoding: 214 214 95
Width: 1144
VWidth: 910
Flags: HW
LayerCount: 2
Fore
SplineSet
664 943 m 0
 706 947 756 941 784 930 c 0
 809 921 816 908 804 896 c 0
 786 878 722 866 666 871 c 0
 600 876 565 896 580 917 c 0
 590 930 623 939 664 943 c 0
990 943 m 0
 1032 947 1082 941 1110 930 c 0
 1135 921 1142 908 1130 896 c 0
 1112 878 1048 866 992 871 c 0
 926 876 891 896 906 917 c 0
 916 930 949 939 990 943 c 0
729 824 m 0
 759 825 874 825 903 824 c 0
 980 821 1043 813 1090 800 c 0
 1168 778 1215 746 1239 696 c 0
 1260 650 1261 591 1240 507 c 0
 1229 461 1196 356 1179 310 c 0
 1149 229 1116 173 1070 127 c 0
 994 51 884 11 728 -1 c 0
 691 -5 673 -4 603 -5 c 0
 530 -5 489 -5 450 -2 c 0
 339 5 260 28 209 65 c 0
 166 97 145 145 145 206 c 0
 145 238 150 274 162 320 c 0
 174 366 205 464 221 509 c 0
 250 588 285 645 330 691 c 0
 346 706 359 717 377 730 c 0
 460 789 569 819 729 824 c 0
907 749 m 0
 892 750 769 751 745 750 c 0
 697 748 666 741 631 725 c 0
 602 710 577 692 551 667 c 0
 505 620 472 560 439 461 c 0
 414 385 393 316 387 280 c 0
 377 232 375 199 381 167 c 0
 391 115 425 81 474 73 c 0
 490 70 506 69 563 68 c 0
 658 67 690 70 725 79 c 0
 771 91 811 115 848 152 c 0
 876 179 897 209 918 251 c 0
 939 291 954 332 979 416 c 0
 999 478 1009 511 1014 543 c 0
 1031 632 1020 691 977 725 c 0
 959 740 938 746 907 749 c 0
EndSplineSet
EndChar

StartChar: Udieresis
Encoding: 220 220 96
Width: 985
VWidth: 910
Flags: HW
LayerCount: 2
Fore
SplineSet
585 943 m 0
 627 947 677 941 705 930 c 0
 730 921 737 908 725 896 c 0
 707 878 643 866 587 871 c 0
 521 876 486 896 501 917 c 0
 511 930 544 939 585 943 c 0
911 943 m 0
 953 947 1002 941 1030 930 c 0
 1055 921 1062 908 1050 896 c 0
 1032 878 969 866 913 871 c 0
 847 876 811 896 826 917 c 0
 836 930 870 939 911 943 c 0
343 816 m 2
 344 819 l 1
 461 819 l 1
 577 819 l 2
 577 818 576 812 573 804 c 0
 570 797 567 786 566 782 c 0
 564 777 528 660 485 522 c 0
 402 257 398 247 393 223 c 0
 375 147 382 101 417 78 c 0
 426 72 432 70 452 69 c 0
 472 68 560 68 572 70 c 0
 603 74 632 86 657 109 c 0
 693 140 718 183 743 252 c 0
 746 260 782 382 827 522 c 0
 871 662 909 785 913 795 c 0
 916 805 919 814 919 816 c 2
 920 819 l 1
 1037 819 l 1
 1153 819 l 2
 1153 818 1152 812 1149 804 c 0
 1146 797 1143 786 1142 782 c 0
 1138 770 980 262 974 243 c 0
 939 140 894 83 818 46 c 0
 762 18 693 2 595 -4 c 0
 570 -6 437 -6 412 -4 c 0
 346 0 300 8 260 21 c 0
 235 29 219 37 201 50 c 0
 184 62 172 76 163 95 c 0
 144 133 146 182 170 264 c 0
 177 289 330 774 337 795 c 0
 340 805 343 814 343 816 c 2
EndSplineSet
EndChar

StartChar: adieresis
Encoding: 228 228 97
Width: 834
VWidth: 910
Flags: HW
LayerCount: 2
Fore
SplineSet
445 738 m 0
 487 742 536 736 564 725 c 0
 589 716 596 703 584 691 c 0
 566 673 503 661 447 666 c 0
 381 671 345 691 360 712 c 0
 370 725 404 734 445 738 c 0
772 738 m 0
 814 742 863 736 891 725 c 0
 916 716 923 703 911 691 c 0
 893 673 830 661 774 666 c 0
 708 671 672 691 687 712 c 0
 697 725 731 734 772 738 c 0
548 619 m 0
 570 620 639 620 663 619 c 0
 696 617 724 615 745 611 c 0
 752 610 755 610 763 611 c 0
 783 615 799 614 869 614 c 2
 938 614 l 1
 932 596 l 2
 929 586 927 577 927 576 c 0
 927 574 758 34 755 28 c 0
 754 26 752 19 750 12 c 2
 746 0 l 1
 687 0 l 2
 628 0 612 1 594 4 c 0
 585 5 585 5 570 3 c 0
 534 -2 507 -4 451 -5 c 0
 366 -6 315 -2 266 10 c 0
 223 20 189 37 171 56 c 0
 140 91 135 144 155 227 c 0
 170 284 200 379 218 421 c 0
 247 489 285 536 332 565 c 0
 383 596 455 614 548 619 c 0
636 545 m 0
 631 546 580 546 573 545 c 0
 546 541 511 515 485 478 c 0
 459 440 440 398 411 306 c 0
 388 232 380 195 377 160 c 0
 373 122 381 92 396 77 c 0
 406 67 404 68 441 68 c 0
 478 69 480 69 495 76 c 0
 526 91 550 125 569 181 c 0
 578 207 648 433 652 448 c 0
 655 457 657 469 658 475 c 0
 660 487 660 510 658 518 c 0
 655 532 645 544 636 545 c 0
EndSplineSet
EndChar

StartChar: ccedilla
Encoding: 231 231 98
Width: 834
VWidth: 910
Flags: HW
LayerCount: 2
Fore
SplineSet
549 619 m 0
 569 620 678 619 698 618 c 0
 717 617 742 615 756 613 c 0
 800 608 839 598 864 586 c 0
 891 572 905 553 907 527 c 0
 907 515 905 509 898 486 c 0
 894 474 892 465 891 464 c 0
 891 463 866 463 770 463 c 2
 649 463 l 1
 650 465 l 2
 656 475 670 503 672 508 c 0
 674 516 674 532 672 538 c 0
 669 546 671 545 625 546 c 0
 579 546 572 547 560 542 c 0
 529 531 498 502 473 459 c 0
 452 424 436 386 411 306 c 0
 388 232 380 195 377 160 c 0
 373 122 381 92 396 77 c 0
 405 68 404 68 439 68 c 0
 471 68 498 69 509 71 c 0
 516 72 519 74 527 82 c 0
 534 88 541 98 546 108 c 0
 549 114 549 116 551 133 c 0
 551 142 552 150 552 151 c 2
 673 151 l 1
 794 151 l 1
 788 135 l 2
 785 126 783 116 782 112 c 0
 777 94 761 71 746 56 c 0
 717 30 673 14 603 4 c 0
 596 3 590 2 590 2 c 1
 590 2 591 -1 591 -4 c 0
 593 -11 591 -23 588 -32 c 0
 579 -63 554 -87 524 -95 c 2
 517 -96 l 1
 398 -97 l 2
 332 -97 281 -96 283 -96 c 0
 317 -91 345 -66 355 -32 c 0
 358 -24 360 -8 358 -5 c 0
 358 -4 352 -3 343 -2 c 0
 291 3 249 11 217 26 c 0
 200 34 181 46 171 56 c 0
 140 91 135 144 155 227 c 0
 166 269 191 349 207 391 c 0
 246 496 294 554 370 584 c 0
 417 604 475 615 549 619 c 0
EndSplineSet
EndChar

StartChar: odieresis
Encoding: 246 246 99
Width: 942
VWidth: 910
Flags: HW
LayerCount: 2
Fore
SplineSet
499 738 m 0
 541 742 590 736 618 725 c 0
 643 716 650 703 638 691 c 0
 620 673 557 661 501 666 c 0
 435 671 399 691 414 712 c 0
 424 725 458 734 499 738 c 0
826 738 m 0
 868 742 917 736 945 725 c 0
 970 716 977 703 965 691 c 0
 947 673 883 661 827 666 c 0
 761 671 726 691 741 712 c 0
 751 725 785 734 826 738 c 0
588 619 m 0
 608 620 706 620 725 619 c 0
 819 615 883 603 930 579 c 0
 974 557 998 528 1006 485 c 0
 1008 476 1008 471 1008 454 c 0
 1008 431 1007 424 1002 400 c 0
 995 360 967 268 949 222 c 0
 911 128 859 71 777 36 c 0
 727 15 663 2 589 -3 c 0
 533 -7 428 -7 373 -3 c 0
 302 2 243 15 203 35 c 0
 159 57 135 86 127 129 c 0
 125 138 126 143 126 160 c 0
 126 186 129 205 137 238 c 0
 142 263 159 321 173 358 c 0
 207 459 249 517 317 557 c 0
 381 595 467 615 588 619 c 0
706 545 m 0
 690 546 615 546 597 545 c 0
 581 544 569 543 556 538 c 0
 502 521 457 474 427 408 c 0
 415 382 405 356 389 303 c 0
 371 243 364 218 360 187 c 0
 358 174 358 145 360 134 c 0
 363 123 366 110 371 102 c 0
 376 93 389 81 398 76 c 0
 407 71 413 70 430 69 c 0
 450 68 537 68 550 70 c 0
 614 77 671 127 707 207 c 0
 718 232 728 257 742 300 c 0
 767 381 775 417 775 454 c 0
 775 474 774 483 769 498 c 0
 764 510 759 518 750 527 c 0
 737 540 727 544 706 545 c 0
EndSplineSet
EndChar

StartChar: udieresis
Encoding: 252 252 100
Width: 834
VWidth: 910
Flags: HW
LayerCount: 2
Fore
SplineSet
445 738 m 0
 487 742 536 736 564 725 c 0
 589 716 596 703 584 691 c 0
 566 673 503 661 447 666 c 0
 381 671 345 691 360 712 c 0
 370 725 404 734 445 738 c 0
772 738 m 0
 814 742 863 736 891 725 c 0
 916 716 923 703 911 691 c 0
 893 673 830 661 774 666 c 0
 708 671 672 691 687 712 c 0
 697 725 731 734 772 738 c 0
280 613 m 0
 280 614 304 614 397 614 c 2
 513 614 l 1
 512 611 l 2
 506 591 495 555 453 421 c 0
 427 335 403 260 401 252 c 0
 392 221 387 197 383 173 c 0
 380 155 380 127 382 114 c 0
 386 98 392 84 401 76 c 0
 409 68 408 68 443 68 c 0
 479 69 481 69 496 76 c 0
 526 91 548 123 567 175 c 0
 570 182 600 277 634 386 c 0
 668 494 697 590 700 599 c 2
 705 614 l 1
 822 614 l 2
 915 614 938 614 938 613 c 0
 933 600 927 577 927 576 c 0
 927 575 888 452 842 303 c 0
 777 98 757 28 755 20 c 0
 754 14 752 7 752 5 c 2
 751 0 l 1
 689 0 l 2
 629 0 612 1 594 4 c 0
 586 5 586 5 571 3 c 0
 535 -2 507 -4 451 -5 c 0
 391 -5 354 -4 318 1 c 0
 262 9 219 23 191 43 c 0
 169 58 154 81 149 111 c 0
 147 125 147 157 150 176 c 0
 154 201 159 227 170 262 c 0
 175 283 263 563 273 592 c 0
 277 603 279 612 280 613 c 0
EndSplineSet
EndChar

StartChar: degree
Encoding: 176 176 101
Width: 695
VWidth: 910
Flags: HW
LayerCount: 2
Fore
SplineSet
527 818 m 0
 569 820 651 819 684 816 c 0
 745 811 797 799 826 782 c 0
 854 766 865 746 867 718 c 0
 868 701 865 682 857 654 c 0
 841 601 819 568 789 545 c 0
 745 513 674 496 572 491 c 0
 544 490 453 490 433 492 c 0
 391 495 364 499 336 506 c 0
 290 517 259 536 246 559 c 0
 244 562 242 568 240 573 c 0
 238 580 238 581 238 596 c 0
 238 609 238 615 240 623 c 0
 245 646 254 675 262 694 c 0
 278 730 299 754 328 771 c 0
 371 798 441 814 527 818 c 0
626 742 m 2
 624 745 l 1
 591 745 l 2
 555 745 549 745 542 742 c 0
 518 731 499 703 484 661 c 0
 475 633 471 615 471 597 c 0
 470 582 474 573 479 567 c 2
 482 563 l 1
 513 563 l 2
 552 563 556 564 566 569 c 0
 571 572 576 575 583 582 c 0
 600 599 612 623 624 662 c 0
 631 685 634 698 634 713 c 0
 635 728 631 736 626 742 c 2
EndSplineSet
EndChar

StartChar: grave
Encoding: 96 96 102
Width: 253
VWidth: 910
Flags: HW
LayerCount: 2
Fore
SplineSet
360 819 m 0
 363 819 372 820 382 820 c 0
 456 821 517 803 541 775 c 0
 546 768 551 756 554 747 c 0
 556 741 556 738 556 722 c 0
 556 704 556 700 553 685 c 0
 548 656 538 619 522 569 c 2
 514 543 l 1
 398 543 l 2
 333 543 281 543 281 544 c 2
 281 544 284 553 287 562 c 0
 315 655 323 689 323 721 c 0
 323 736 322 744 320 747 c 0
 319 748 315 750 309 751 c 0
 275 758 255 770 255 783 c 0
 255 801 297 815 360 819 c 0
EndSplineSet
EndChar

StartChar: quotesingle
Encoding: 39 39 103
Width: 202
VWidth: 910
Flags: HW
LayerCount: 2
Fore
SplineSet
240 819 m 2
 357 819 l 2
 468 819 473 819 473 817 c 0
 472 816 413 626 411 620 c 2
 411 617 l 1
 294 617 l 2
 183 617 177 617 177 619 c 0
 178 620 192 664 209 719 c 0
 226 774 240 818 240 819 c 2
EndSplineSet
EndChar

StartChar: Aring
Encoding: 197 197 104
Width: 942
VWidth: 910
Flags: HW
LayerCount: 2
Fore
SplineSet
780 1103 m 0
 783 1103 795 1104 807 1104 c 0
 895 1105 943 1089 953 1056 c 0
 958 1039 955 1016 940 970 c 0
 925 927 912 906 887 889 c 0
 856 869 807 860 735 861 c 0
 720 862 703 862 698 863 c 0
 648 868 616 881 606 902 c 0
 597 921 599 943 617 997 c 0
 631 1039 645 1059 670 1076 c 0
 695 1091 730 1100 780 1103 c 0
821 1060 m 2
 819 1063 l 1
 807 1063 l 2
 796 1063 795 1063 790 1061 c 0
 776 1054 763 1038 754 1016 c 0
 749 1007 740 977 735 960 c 0
 728 933 727 915 735 905 c 2
 737 902 l 1
 749 902 l 2
 760 902 761 902 766 904 c 0
 780 911 794 927 803 949 c 0
 808 958 817 988 822 1005 c 0
 829 1032 829 1050 821 1060 c 2
316 411 m 2
 574 819 l 1
 727 819 l 1
 880 819 l 1
 880 800 l 2
 880 785 885 194 886 31 c 1
 887 0 l 1
 770 0 l 1
 654 0 l 1
 654 3 l 2
 654 6 674 272 675 280 c 2
 675 286 l 1
 561 286 l 1
 445 286 l 1
 367 143 l 1
 289 0 l 1
 173 0 l 2
 107 0 56 0 56 1 c 2
 56 1 173 186 316 411 c 2
697 568 m 0
 706 682 714 776 714 776 c 2
 713 776 487 361 486 360 c 0
 486 359 529 360 583 360 c 2
 681 360 l 1
 681 360 688 453 697 568 c 0
EndSplineSet
EndChar

StartChar: AE
Encoding: 198 198 105
Width: 1144
VWidth: 910
Flags: HW
LayerCount: 2
Fore
SplineSet
392 411 m 2
 715 819 l 1
 1025 819 l 1
 1333 819 l 1
 1333 816 l 2
 1332 815 1328 799 1322 780 c 2
 1311 746 l 1
 1141 745 l 1
 972 745 l 1
 968 731 l 2
 959 702 880 452 879 449 c 2
 879 447 l 1
 1023 447 l 2
 1138 447 1167 447 1167 446 c 0
 1166 444 1144 373 1144 372 c 2
 999 372 l 1
 856 372 l 1
 809 224 l 2
 784 143 763 76 763 75 c 0
 763 74 797 74 932 74 c 0
 1066 74 1100 74 1100 73 c 0
 1100 72 1095 55 1090 36 c 2
 1078 1 l 1
 792 0 l 2
 564 0 506 0 506 1 c 0
 507 2 593 279 595 284 c 0
 595 286 593 286 548 286 c 2
 502 286 l 1
 400 143 l 1
 299 0 l 1
 183 0 l 2
 70 0 66 0 67 2 c 0
 68 3 214 186 392 411 c 2
664 505 m 0
 667 515 670 523 670 523 c 1
 670 523 655 505 639 481 c 0
 623 457 596 420 581 399 c 2
 553 360 l 1
 586 360 l 1
 619 360 l 1
 638 423 l 2
 650 458 660 495 664 505 c 0
EndSplineSet
EndChar

StartChar: Oslash
Encoding: 216 216 106
Width: 1144
VWidth: 910
Flags: HW
LayerCount: 2
Fore
SplineSet
1104 821 m 0
 1117 832 1128 839 1128 839 c 1
 1128 839 1140 821 1155 799 c 2
 1182 760 l 1
 1190 755 l 2
 1211 740 1227 719 1239 696 c 0
 1260 650 1261 591 1240 507 c 0
 1229 461 1196 356 1179 310 c 0
 1149 229 1116 173 1070 127 c 0
 994 51 884 11 728 -1 c 0
 691 -5 673 -4 603 -5 c 0
 469 -6 404 -1 334 14 c 2
 319 16 l 1
 296 -2 l 1
 273 -21 l 1
 270 -17 l 2
 269 -15 257 2 243 22 c 2
 218 58 l 1
 210 65 l 2
 166 97 145 145 145 206 c 0
 145 238 150 274 162 320 c 0
 174 366 205 464 221 509 c 0
 250 588 285 645 330 691 c 0
 346 706 359 717 377 730 c 0
 446 779 536 808 656 819 c 0
 702 824 741 825 817 825 c 0
 934 825 995 820 1057 807 c 0
 1068 805 1078 804 1080 803 c 0
 1081 803 1088 808 1104 821 c 0
907 749 m 0
 892 750 769 751 745 750 c 0
 697 748 666 741 631 725 c 0
 602 710 577 692 551 667 c 0
 505 620 472 560 439 461 c 0
 414 388 394 318 387 283 c 0
 384 268 380 245 380 245 c 2
 380 244 975 718 978 721 c 0
 979 723 979 722 974 726 c 0
 971 729 965 732 960 735 c 0
 945 742 931 747 907 749 c 0
1019 573 m 0
 1019 574 1020 574 1019 574 c 2
 1019 574 423 100 421 97 c 0
 418 94 442 81 457 76 c 0
 477 70 492 69 563 68 c 0
 658 67 690 70 725 79 c 0
 771 91 811 115 848 152 c 0
 876 179 897 209 918 251 c 0
 939 291 954 332 979 416 c 0
 998 476 1008 511 1014 541 c 0
 1016 553 1019 571 1019 573 c 0
EndSplineSet
EndChar

StartChar: aring
Encoding: 229 229 107
Width: 834
VWidth: 910
Flags: HW
LayerCount: 2
Fore
SplineSet
663 898 m 0
 676 899 732 898 745 897 c 0
 772 893 790 889 806 881 c 0
 823 873 833 862 836 847 c 0
 840 830 836 809 821 764 c 0
 807 723 793 701 768 684 c 0
 746 670 717 662 676 658 c 0
 659 656 597 656 582 658 c 0
 513 665 483 685 483 723 c 0
 483 737 489 758 500 792 c 0
 514 833 528 854 553 871 c 0
 578 887 608 894 663 898 c 0
703 856 m 2
 701 858 l 1
 689 858 l 2
 679 858 678 859 673 857 c 0
 659 850 645 833 636 811 c 0
 631 802 622 772 617 755 c 0
 610 728 610 710 618 700 c 2
 620 697 l 1
 632 697 l 2
 642 697 643 697 648 699 c 0
 662 706 675 723 684 745 c 0
 689 754 699 783 704 800 c 0
 711 827 711 846 703 856 c 2
548 619 m 0
 570 620 639 620 663 619 c 0
 696 617 724 615 745 611 c 0
 752 610 755 610 763 611 c 0
 783 615 799 614 869 614 c 2
 938 614 l 1
 932 596 l 2
 929 586 927 577 927 576 c 0
 927 574 758 34 755 28 c 0
 754 26 752 19 750 12 c 2
 746 0 l 1
 687 0 l 2
 628 0 612 1 594 4 c 0
 585 5 585 5 570 3 c 0
 534 -2 507 -4 451 -5 c 0
 366 -6 315 -2 266 10 c 0
 223 20 189 37 171 56 c 0
 140 91 135 144 155 227 c 0
 170 284 200 379 218 421 c 0
 247 489 285 536 332 565 c 0
 383 596 455 614 548 619 c 0
636 545 m 0
 631 546 580 546 573 545 c 0
 546 541 511 515 485 478 c 0
 459 440 440 398 411 306 c 0
 388 232 380 195 377 160 c 0
 373 122 381 92 396 77 c 0
 406 67 404 68 441 68 c 0
 478 69 480 69 495 76 c 0
 526 91 550 125 569 181 c 0
 578 207 648 433 652 448 c 0
 655 457 657 469 658 475 c 0
 660 487 660 510 658 518 c 0
 655 532 645 544 636 545 c 0
EndSplineSet
EndChar

StartChar: ae
Encoding: 230 230 108
Width: 935
VWidth: 910
Flags: HW
LayerCount: 2
Fore
SplineSet
382 613 m 0
 405 614 523 614 539 613 c 0
 585 609 616 604 646 595 c 2
 661 592 l 1
 674 595 l 2
 719 608 776 614 838 614 c 0
 927 614 1001 601 1043 576 c 0
 1070 559 1084 541 1092 513 c 0
 1097 489 1097 458 1090 418 c 0
 1085 389 1069 336 1054 287 c 0
 1049 274 1046 262 1046 260 c 2
 1045 258 l 1
 855 258 l 2
 676 258 665 258 665 256 c 0
 650 206 641 159 641 130 c 0
 641 105 647 83 659 73 c 2
 664 68 l 1
 684 68 l 2
 712 68 728 69 733 72 c 0
 738 75 751 88 757 97 c 0
 760 102 763 109 765 113 c 0
 768 120 768 122 769 138 c 2
 771 156 l 1
 891 156 l 2
 957 156 1012 156 1012 155 c 2
 1012 155 1010 147 1007 137 c 0
 1004 127 1000 116 999 113 c 0
 996 103 987 85 981 76 c 0
 957 43 928 27 872 13 c 0
 822 0 763 -5 679 -5 c 0
 601 -5 546 1 502 15 c 2
 494 17 l 1
 488 15 l 2
 464 6 432 -2 400 -7 c 0
 375 -11 363 -11 331 -11 c 0
 299 -11 289 -11 264 -7 c 0
 257 -6 241 -6 230 -5 c 0
 145 -1 88 12 52 37 c 0
 31 51 18 68 13 92 c 0
 11 102 11 126 13 141 c 0
 18 171 39 237 53 269 c 0
 68 302 86 329 108 348 c 0
 157 389 231 409 340 414 c 0
 367 415 419 415 433 413 c 0
 444 412 446 413 459 418 c 0
 466 422 478 432 484 443 c 0
 494 458 498 470 501 491 c 0
 505 513 500 531 492 538 c 2
 490 541 l 1
 442 541 l 2
 417 540 393 540 391 539 c 0
 386 539 386 538 380 532 c 0
 375 527 371 522 368 517 c 2
 364 510 l 1
 363 493 l 2
 362 484 362 477 362 476 c 0
 362 474 356 474 241 474 c 0
 126 474 120 474 120 476 c 0
 126 495 130 508 132 512 c 0
 138 538 161 564 194 580 c 0
 230 598 295 609 382 613 c 0
845 535 m 0
 840 540 839 541 835 541 c 0
 826 541 808 533 796 524 c 0
 762 499 733 453 707 385 c 0
 702 370 689 334 689 332 c 0
 689 331 718 331 762 331 c 2
 834 332 l 1
 839 349 l 2
 845 370 854 406 857 421 c 0
 868 480 864 519 845 535 c 0
384 339 m 0
 377 340 370 340 368 340 c 0
 356 342 336 331 319 314 c 0
 295 290 281 262 262 201 c 0
 248 157 245 137 245 115 c 0
 245 94 248 83 257 73 c 2
 262 68 l 1
 291 68 l 1
 320 67 l 1
 325 70 l 2
 336 75 350 86 360 95 c 0
 381 116 396 145 411 193 c 0
 415 202 417 211 419 213 c 0
 420 215 423 227 426 238 c 0
 431 255 442 293 453 328 c 2
 456 336 l 1
 441 336 l 2
 424 336 402 337 384 339 c 0
EndSplineSet
EndChar

StartChar: oslash
Encoding: 248 248 109
Width: 942
VWidth: 910
Flags: HW
LayerCount: 2
Fore
SplineSet
846 623 m 1
 861 635 l 1
 868 625 l 2
 872 620 878 610 882 605 c 2
 888 595 l 1
 896 593 l 2
 928 582 958 565 974 549 c 0
 990 531 1001 510 1006 485 c 0
 1008 476 1008 471 1008 454 c 0
 1008 431 1007 424 1002 400 c 0
 995 360 967 268 949 222 c 0
 911 128 859 71 777 36 c 0
 742 22 700 11 654 5 c 0
 601 -3 552 -6 462 -5 c 0
 392 -4 366 -3 327 2 c 0
 319 3 311 4 309 5 c 2
 304 5 l 1
 289 -7 l 2
 282 -13 275 -19 274 -20 c 0
 273 -21 270 -18 259 -1 c 0
 247 16 245 19 243 20 c 0
 237 21 218 29 207 34 c 0
 161 57 136 84 127 129 c 0
 125 138 126 143 126 160 c 0
 126 186 129 205 137 238 c 0
 142 263 159 321 173 358 c 0
 207 459 249 517 317 557 c 0
 375 592 451 612 559 618 c 0
 583 620 692 620 722 619 c 0
 761 617 797 615 822 611 c 2
 829 609 l 1
 846 623 l 1
706 545 m 0
 690 546 615 546 597 545 c 0
 581 544 569 543 556 538 c 0
 534 531 514 518 496 503 c 0
 457 469 429 424 404 350 c 0
 393 316 369 239 370 238 c 2
 370 238 406 267 450 302 c 0
 494 337 576 405 634 451 c 2
 739 536 l 1
 735 539 l 2
 727 543 720 544 706 545 c 0
763 373 m 0
 764 375 764 376 763 376 c 2
 763 376 680 309 578 227 c 2
 394 78 l 1
 398 76 l 2
 406 72 414 70 430 69 c 0
 450 68 537 68 550 70 c 0
 581 74 611 87 639 111 c 0
 676 144 703 187 728 260 c 0
 738 286 759 358 763 373 c 0
EndSplineSet
EndChar
